<mxfile host="app.diagrams.net" modified="2022-12-04T01:29:32.176Z" agent="5.0 (Windows)" etag="wdj6JiQMwcmj5bwesEkE" version="20.6.0" type="github">
  <diagram id="xZm6dGXULn_smGHAJ7_t" name="Page-1">
    <mxGraphModel dx="7355" dy="2780" grid="0" gridSize="10" guides="1" tooltips="1" connect="1" arrows="1" fold="1" page="0" pageScale="1" pageWidth="850" pageHeight="1100" background="none" math="0" shadow="0">
      <root>
        <mxCell id="0" />
        <mxCell id="1" parent="0" />
        <mxCell id="dXoF_dUNX4MNdJ8tNBUY-18" style="edgeStyle=orthogonalEdgeStyle;rounded=0;orthogonalLoop=1;jettySize=auto;html=1;entryX=0;entryY=0.5;entryDx=0;entryDy=0;fontFamily=Courier New;shadow=0;" parent="1" target="dXoF_dUNX4MNdJ8tNBUY-7" edge="1">
          <mxGeometry relative="1" as="geometry">
            <mxPoint x="787" y="99" as="sourcePoint" />
          </mxGeometry>
        </mxCell>
        <mxCell id="dXoF_dUNX4MNdJ8tNBUY-1" value="" style="whiteSpace=wrap;html=1;aspect=fixed;rounded=0;shadow=0;" parent="1" vertex="1">
          <mxGeometry x="417" y="59" width="370" height="370" as="geometry" />
        </mxCell>
        <mxCell id="dXoF_dUNX4MNdJ8tNBUY-12" style="edgeStyle=orthogonalEdgeStyle;rounded=0;orthogonalLoop=1;jettySize=auto;html=1;entryX=-0.008;entryY=0.043;entryDx=0;entryDy=0;entryPerimeter=0;fontFamily=Courier New;shadow=0;" parent="1" source="dXoF_dUNX4MNdJ8tNBUY-2" target="dXoF_dUNX4MNdJ8tNBUY-1" edge="1">
          <mxGeometry relative="1" as="geometry" />
        </mxCell>
        <mxCell id="dXoF_dUNX4MNdJ8tNBUY-2" value="&lt;font face=&quot;Courier New&quot;&gt;iRST&lt;/font&gt;" style="text;html=1;strokeColor=none;fillColor=none;align=center;verticalAlign=middle;whiteSpace=wrap;rounded=0;shadow=0;" parent="1" vertex="1">
          <mxGeometry x="287" y="59" width="40" height="30" as="geometry" />
        </mxCell>
        <mxCell id="dXoF_dUNX4MNdJ8tNBUY-13" style="edgeStyle=orthogonalEdgeStyle;rounded=0;orthogonalLoop=1;jettySize=auto;html=1;entryX=-0.005;entryY=0.905;entryDx=0;entryDy=0;entryPerimeter=0;fontFamily=Courier New;shadow=0;" parent="1" source="dXoF_dUNX4MNdJ8tNBUY-3" target="dXoF_dUNX4MNdJ8tNBUY-1" edge="1">
          <mxGeometry relative="1" as="geometry" />
        </mxCell>
        <mxCell id="dXoF_dUNX4MNdJ8tNBUY-3" value="&lt;font face=&quot;Courier New&quot;&gt;iCLK&lt;/font&gt;" style="text;html=1;strokeColor=none;fillColor=none;align=center;verticalAlign=middle;whiteSpace=wrap;rounded=0;shadow=0;" parent="1" vertex="1">
          <mxGeometry x="287" y="379" width="40" height="30" as="geometry" />
        </mxCell>
        <mxCell id="dXoF_dUNX4MNdJ8tNBUY-8" style="edgeStyle=orthogonalEdgeStyle;rounded=0;orthogonalLoop=1;jettySize=auto;html=1;entryX=0.003;entryY=0.338;entryDx=0;entryDy=0;entryPerimeter=0;fontFamily=Courier New;shadow=0;" parent="1" source="dXoF_dUNX4MNdJ8tNBUY-4" target="dXoF_dUNX4MNdJ8tNBUY-1" edge="1">
          <mxGeometry relative="1" as="geometry" />
        </mxCell>
        <mxCell id="dXoF_dUNX4MNdJ8tNBUY-4" value="&lt;font face=&quot;Courier New&quot;&gt;iInstLd&lt;/font&gt;" style="text;html=1;strokeColor=none;fillColor=none;align=center;verticalAlign=middle;whiteSpace=wrap;rounded=0;shadow=0;" parent="1" vertex="1">
          <mxGeometry x="277" y="169" width="60" height="30" as="geometry" />
        </mxCell>
        <mxCell id="dXoF_dUNX4MNdJ8tNBUY-10" style="edgeStyle=orthogonalEdgeStyle;rounded=0;orthogonalLoop=1;jettySize=auto;html=1;entryX=-0.003;entryY=0.419;entryDx=0;entryDy=0;entryPerimeter=0;fontFamily=Courier New;shadow=0;" parent="1" target="dXoF_dUNX4MNdJ8tNBUY-1" edge="1">
          <mxGeometry relative="1" as="geometry">
            <mxPoint x="337" y="214.02999999999997" as="sourcePoint" />
          </mxGeometry>
        </mxCell>
        <mxCell id="dXoF_dUNX4MNdJ8tNBUY-11" style="edgeStyle=orthogonalEdgeStyle;rounded=0;orthogonalLoop=1;jettySize=auto;html=1;entryX=0;entryY=0.5;entryDx=0;entryDy=0;fontFamily=Courier New;shadow=0;" parent="1" source="dXoF_dUNX4MNdJ8tNBUY-6" target="dXoF_dUNX4MNdJ8tNBUY-1" edge="1">
          <mxGeometry relative="1" as="geometry" />
        </mxCell>
        <mxCell id="dXoF_dUNX4MNdJ8tNBUY-6" value="&lt;font face=&quot;Courier New&quot;&gt;iInstExt&lt;/font&gt;" style="text;html=1;strokeColor=none;fillColor=none;align=center;verticalAlign=middle;whiteSpace=wrap;rounded=0;shadow=0;" parent="1" vertex="1">
          <mxGeometry x="277" y="229" width="60" height="30" as="geometry" />
        </mxCell>
        <mxCell id="dXoF_dUNX4MNdJ8tNBUY-7" value="&lt;font face=&quot;Courier New&quot;&gt;oALUOut&lt;/font&gt;" style="text;html=1;strokeColor=none;fillColor=none;align=center;verticalAlign=middle;whiteSpace=wrap;rounded=0;shadow=0;" parent="1" vertex="1">
          <mxGeometry x="837" y="84" width="50" height="30" as="geometry" />
        </mxCell>
        <mxCell id="dXoF_dUNX4MNdJ8tNBUY-19" value="&lt;font style=&quot;font-size: 36px;&quot;&gt;WHOLE ASS PROCESSOR HERE&lt;/font&gt;" style="text;html=1;strokeColor=none;fillColor=none;align=center;verticalAlign=middle;whiteSpace=wrap;rounded=0;rotation=-30;shadow=0;" parent="1" vertex="1">
          <mxGeometry x="432" y="159" width="340" height="170" as="geometry" />
        </mxCell>
        <mxCell id="7AcrwSVY3at2XOGS3Gc--17" value="&lt;font face=&quot;Courier New&quot;&gt;iInstAddr&lt;/font&gt;" style="text;html=1;strokeColor=none;fillColor=none;align=center;verticalAlign=middle;whiteSpace=wrap;rounded=0;shadow=0;" parent="1" vertex="1">
          <mxGeometry x="270" y="199" width="60" height="30" as="geometry" />
        </mxCell>
        <mxCell id="7AcrwSVY3at2XOGS3Gc--90" value="&lt;b style=&quot;font-size: 23px;&quot;&gt;RegFile&lt;/b&gt;" style="whiteSpace=wrap;html=1;aspect=fixed;rounded=0;fontFamily=Courier New;fontSize=12;fontColor=default;fillColor=none;gradientColor=none;shadow=0;" parent="1" vertex="1">
          <mxGeometry x="326" y="1420" width="303" height="303" as="geometry" />
        </mxCell>
        <mxCell id="7AcrwSVY3at2XOGS3Gc--91" value="i_ReadReg1" style="text;html=1;strokeColor=none;fillColor=none;align=left;verticalAlign=middle;whiteSpace=wrap;rounded=0;fontFamily=Courier New;fontSize=18;fontColor=default;shadow=0;" parent="1" vertex="1">
          <mxGeometry x="326" y="1432" width="114" height="30" as="geometry" />
        </mxCell>
        <mxCell id="7AcrwSVY3at2XOGS3Gc--92" value="i_ReadReg2" style="text;html=1;strokeColor=none;fillColor=none;align=left;verticalAlign=middle;whiteSpace=wrap;rounded=0;fontFamily=Courier New;fontSize=18;fontColor=default;shadow=0;" parent="1" vertex="1">
          <mxGeometry x="326" y="1462" width="114" height="30" as="geometry" />
        </mxCell>
        <mxCell id="7AcrwSVY3at2XOGS3Gc--93" value="i_WriteReg" style="text;html=1;strokeColor=none;fillColor=none;align=left;verticalAlign=middle;whiteSpace=wrap;rounded=0;fontFamily=Courier New;fontSize=18;fontColor=default;shadow=0;" parent="1" vertex="1">
          <mxGeometry x="326" y="1592" width="114" height="30" as="geometry" />
        </mxCell>
        <mxCell id="7AcrwSVY3at2XOGS3Gc--94" value="i_WriteData" style="text;html=1;strokeColor=none;fillColor=none;align=left;verticalAlign=middle;whiteSpace=wrap;rounded=0;fontFamily=Courier New;fontSize=18;fontColor=default;shadow=0;" parent="1" vertex="1">
          <mxGeometry x="326" y="1622" width="114" height="30" as="geometry" />
        </mxCell>
        <mxCell id="7AcrwSVY3at2XOGS3Gc--95" value="i_Reset" style="text;html=1;strokeColor=none;fillColor=none;align=left;verticalAlign=middle;whiteSpace=wrap;rounded=0;fontFamily=Courier New;fontSize=18;fontColor=default;shadow=0;" parent="1" vertex="1">
          <mxGeometry x="365" y="1701.5" width="60" height="19" as="geometry" />
        </mxCell>
        <mxCell id="7AcrwSVY3at2XOGS3Gc--96" value="i_RegWrite" style="text;html=1;strokeColor=none;fillColor=none;align=left;verticalAlign=middle;whiteSpace=wrap;rounded=0;fontFamily=Courier New;fontSize=18;fontColor=default;shadow=0;" parent="1" vertex="1">
          <mxGeometry x="494" y="1701" width="91" height="20" as="geometry" />
        </mxCell>
        <mxCell id="7AcrwSVY3at2XOGS3Gc--97" value="i_Clock" style="text;html=1;strokeColor=none;fillColor=none;align=left;verticalAlign=middle;whiteSpace=wrap;rounded=0;fontFamily=Courier New;fontSize=18;fontColor=default;shadow=0;" parent="1" vertex="1">
          <mxGeometry x="326" y="1663" width="114" height="30" as="geometry" />
        </mxCell>
        <mxCell id="7AcrwSVY3at2XOGS3Gc--98" value="o_ReadData1" style="text;html=1;strokeColor=none;fillColor=none;align=right;verticalAlign=middle;whiteSpace=wrap;rounded=0;fontFamily=Courier New;fontSize=18;fontColor=default;shadow=0;" parent="1" vertex="1">
          <mxGeometry x="503.5" y="1464.75" width="125" height="30" as="geometry" />
        </mxCell>
        <mxCell id="7AcrwSVY3at2XOGS3Gc--99" value="o_ReadData2" style="text;html=1;strokeColor=none;fillColor=none;align=right;verticalAlign=middle;whiteSpace=wrap;rounded=0;fontFamily=Courier New;fontSize=18;fontColor=default;shadow=0;" parent="1" vertex="1">
          <mxGeometry x="503.5" y="1508.75" width="125" height="30" as="geometry" />
        </mxCell>
        <mxCell id="7AcrwSVY3at2XOGS3Gc--100" style="edgeStyle=orthogonalEdgeStyle;rounded=0;orthogonalLoop=1;jettySize=auto;html=1;endArrow=none;endFill=0;startArrow=classic;startFill=1;exitX=0.001;exitY=0.27;exitDx=0;exitDy=0;exitPerimeter=0;shadow=0;" parent="1" edge="1">
          <mxGeometry relative="1" as="geometry">
            <mxPoint x="326.0029999999997" y="1449.0200000000004" as="sourcePoint" />
            <mxPoint x="-129" y="1449" as="targetPoint" />
            <Array as="points">
              <mxPoint x="291.99" y="1449.21" />
              <mxPoint x="291.99" y="1449.21" />
            </Array>
          </mxGeometry>
        </mxCell>
        <mxCell id="7AcrwSVY3at2XOGS3Gc--101" style="edgeStyle=orthogonalEdgeStyle;rounded=0;orthogonalLoop=1;jettySize=auto;html=1;endArrow=none;endFill=0;startArrow=classic;startFill=1;exitX=0.001;exitY=0.27;exitDx=0;exitDy=0;exitPerimeter=0;shadow=0;" parent="1" edge="1">
          <mxGeometry relative="1" as="geometry">
            <mxPoint x="326.0029999999997" y="1476.8100000000004" as="sourcePoint" />
            <mxPoint x="-129" y="1477" as="targetPoint" />
            <Array as="points">
              <mxPoint x="291.99" y="1477" />
              <mxPoint x="291.99" y="1477" />
            </Array>
          </mxGeometry>
        </mxCell>
        <mxCell id="7AcrwSVY3at2XOGS3Gc--102" style="edgeStyle=orthogonalEdgeStyle;rounded=0;orthogonalLoop=1;jettySize=auto;html=1;endArrow=none;endFill=0;startArrow=classic;startFill=1;entryX=0.5;entryY=0;entryDx=0;entryDy=0;exitX=0.001;exitY=0.27;exitDx=0;exitDy=0;exitPerimeter=0;shadow=0;" parent="1" target="Ao4q6FNZmFbgt5mi8pkg-127" edge="1">
          <mxGeometry relative="1" as="geometry">
            <mxPoint x="326.0029999999997" y="1608.02" as="sourcePoint" />
            <mxPoint x="281" y="1608.21" as="targetPoint" />
            <Array as="points">
              <mxPoint x="194" y="1608" />
            </Array>
          </mxGeometry>
        </mxCell>
        <mxCell id="7AcrwSVY3at2XOGS3Gc--103" style="edgeStyle=orthogonalEdgeStyle;rounded=0;orthogonalLoop=1;jettySize=auto;html=1;endArrow=none;endFill=0;startArrow=classic;startFill=1;exitX=0.001;exitY=0.27;exitDx=0;exitDy=0;exitPerimeter=0;shadow=0;" parent="1" edge="1">
          <mxGeometry relative="1" as="geometry">
            <mxPoint x="326.0029999999997" y="1636.81" as="sourcePoint" />
            <mxPoint x="255" y="1637" as="targetPoint" />
            <Array as="points">
              <mxPoint x="291.99" y="1637" />
              <mxPoint x="291.99" y="1637" />
            </Array>
          </mxGeometry>
        </mxCell>
        <mxCell id="7AcrwSVY3at2XOGS3Gc--104" style="edgeStyle=orthogonalEdgeStyle;rounded=0;orthogonalLoop=1;jettySize=auto;html=1;endArrow=none;endFill=0;startArrow=classic;startFill=1;exitX=0.001;exitY=0.27;exitDx=0;exitDy=0;exitPerimeter=0;shadow=0;" parent="1" edge="1">
          <mxGeometry relative="1" as="geometry">
            <mxPoint x="326.0029999999997" y="1677.81" as="sourcePoint" />
            <mxPoint x="245" y="1678" as="targetPoint" />
            <Array as="points">
              <mxPoint x="291.99" y="1678" />
              <mxPoint x="291.99" y="1678" />
            </Array>
          </mxGeometry>
        </mxCell>
        <mxCell id="7AcrwSVY3at2XOGS3Gc--105" style="edgeStyle=orthogonalEdgeStyle;rounded=0;orthogonalLoop=1;jettySize=auto;html=1;endArrow=none;endFill=0;startArrow=classic;startFill=1;shadow=0;" parent="1" edge="1">
          <mxGeometry relative="1" as="geometry">
            <mxPoint x="401.9300000000003" y="1723.0000000000005" as="sourcePoint" />
            <mxPoint x="402" y="1753" as="targetPoint" />
            <Array as="points">
              <mxPoint x="401.93" y="1750" />
            </Array>
          </mxGeometry>
        </mxCell>
        <mxCell id="7AcrwSVY3at2XOGS3Gc--106" style="edgeStyle=orthogonalEdgeStyle;rounded=0;orthogonalLoop=1;jettySize=auto;html=1;endArrow=none;endFill=0;startArrow=classic;startFill=1;shadow=0;strokeColor=#FF3333;" parent="1" edge="1">
          <mxGeometry relative="1" as="geometry">
            <mxPoint x="552.46" y="1723.0000000000005" as="sourcePoint" />
            <mxPoint x="552" y="1800" as="targetPoint" />
            <Array as="points">
              <mxPoint x="552.46" y="1750" />
            </Array>
          </mxGeometry>
        </mxCell>
        <mxCell id="7AcrwSVY3at2XOGS3Gc--109" value="&lt;b&gt;ALU&lt;/b&gt;" style="shape=trapezoid;perimeter=trapezoidPerimeter;whiteSpace=wrap;html=1;fixedSize=1;rounded=0;fontFamily=Courier New;fontSize=23;fontColor=default;fillColor=none;gradientColor=none;rotation=90;size=77.67592592592564;direction=east;horizontal=0;shadow=0;" parent="1" vertex="1">
          <mxGeometry x="1236" y="1500.5" width="303" height="151.5" as="geometry" />
        </mxCell>
        <mxCell id="7AcrwSVY3at2XOGS3Gc--110" value="&lt;b&gt;MUX&lt;/b&gt;" style="shape=trapezoid;perimeter=trapezoidPerimeter;whiteSpace=wrap;html=1;fixedSize=1;rotation=90;shadow=0;horizontal=0;" parent="1" vertex="1">
          <mxGeometry x="-983" y="1489" width="120" height="60" as="geometry" />
        </mxCell>
        <mxCell id="7AcrwSVY3at2XOGS3Gc--111" style="edgeStyle=orthogonalEdgeStyle;rounded=0;orthogonalLoop=1;jettySize=auto;html=1;endArrow=none;endFill=0;startArrow=classic;startFill=1;exitX=0.75;exitY=1;exitDx=0;exitDy=0;shadow=0;" parent="1" source="7AcrwSVY3at2XOGS3Gc--110" edge="1">
          <mxGeometry relative="1" as="geometry">
            <mxPoint x="-952" y="1549" as="sourcePoint" />
            <mxPoint x="-1310" y="1627" as="targetPoint" />
            <Array as="points">
              <mxPoint x="-985" y="1549" />
              <mxPoint x="-985" y="1627" />
            </Array>
          </mxGeometry>
        </mxCell>
        <mxCell id="7AcrwSVY3at2XOGS3Gc--113" value="&lt;font style=&quot;font-size: 18px;&quot;&gt;0&lt;/font&gt;" style="text;html=1;strokeColor=none;fillColor=none;align=center;verticalAlign=middle;whiteSpace=wrap;rounded=0;shadow=0;" parent="1" vertex="1">
          <mxGeometry x="-944" y="1482" width="26" height="13" as="geometry" />
        </mxCell>
        <mxCell id="7AcrwSVY3at2XOGS3Gc--114" value="&lt;font style=&quot;font-size: 18px;&quot;&gt;1&lt;/font&gt;" style="text;html=1;strokeColor=none;fillColor=none;align=center;verticalAlign=middle;whiteSpace=wrap;rounded=0;shadow=0;" parent="1" vertex="1">
          <mxGeometry x="-944" y="1542" width="26" height="13" as="geometry" />
        </mxCell>
        <mxCell id="7AcrwSVY3at2XOGS3Gc--117" value="&lt;p style=&quot;font-size: 26px;&quot;&gt;&lt;font style=&quot;font-size: 26px;&quot; face=&quot;Courier New&quot;&gt;iInstAddr&lt;/font&gt;&lt;/p&gt;" style="text;html=1;strokeColor=none;fillColor=none;align=right;verticalAlign=middle;whiteSpace=wrap;rounded=0;fontFamily=Helvetica;fontSize=26;fontColor=default;shadow=0;" parent="1" vertex="1">
          <mxGeometry x="-1411" y="1615.62" width="98" height="20.13" as="geometry" />
        </mxCell>
        <mxCell id="7AcrwSVY3at2XOGS3Gc--119" value="&lt;font style=&quot;font-size: 18px;&quot; face=&quot;Courier New&quot;&gt;s_NextInstAddr&lt;/font&gt;" style="text;html=1;strokeColor=none;fillColor=none;align=right;verticalAlign=middle;whiteSpace=wrap;rounded=0;shadow=0;" parent="1" vertex="1">
          <mxGeometry x="-1115" y="1468.13" width="155" height="16.5" as="geometry" />
        </mxCell>
        <mxCell id="7AcrwSVY3at2XOGS3Gc--120" value="&lt;div align=&quot;left&quot;&gt;&lt;font style=&quot;font-size: 18px;&quot; face=&quot;Courier New&quot;&gt;s_IMemAddr&lt;/font&gt;&lt;/div&gt;" style="text;html=1;strokeColor=none;fillColor=none;align=left;verticalAlign=middle;whiteSpace=wrap;rounded=0;shadow=0;" parent="1" vertex="1">
          <mxGeometry x="-857" y="1494" width="115" height="16.5" as="geometry" />
        </mxCell>
        <mxCell id="7AcrwSVY3at2XOGS3Gc--121" value="&lt;b&gt;&lt;font style=&quot;font-size: 23px;&quot;&gt;IMem&lt;/font&gt;&lt;/b&gt;" style="whiteSpace=wrap;html=1;aspect=fixed;rounded=0;fontFamily=Courier New;fontSize=12;fontColor=default;fillColor=none;gradientColor=none;shadow=0;" parent="1" vertex="1">
          <mxGeometry x="-697" y="1432" width="303" height="303" as="geometry" />
        </mxCell>
        <mxCell id="7AcrwSVY3at2XOGS3Gc--122" value="addr" style="text;html=1;strokeColor=none;fillColor=none;align=left;verticalAlign=middle;whiteSpace=wrap;rounded=0;fontFamily=Courier New;fontSize=18;fontColor=default;shadow=0;" parent="1" vertex="1">
          <mxGeometry x="-691" y="1500" width="60" height="30" as="geometry" />
        </mxCell>
        <mxCell id="7AcrwSVY3at2XOGS3Gc--123" value="we" style="text;html=1;strokeColor=none;fillColor=none;align=left;verticalAlign=middle;whiteSpace=wrap;rounded=0;fontFamily=Courier New;fontSize=18;fontColor=default;shadow=0;" parent="1" vertex="1">
          <mxGeometry x="-690" y="1645" width="46" height="18" as="geometry" />
        </mxCell>
        <mxCell id="7AcrwSVY3at2XOGS3Gc--124" value="clk" style="text;html=1;strokeColor=none;fillColor=none;align=left;verticalAlign=middle;whiteSpace=wrap;rounded=0;fontFamily=Courier New;fontSize=18;fontColor=default;shadow=0;" parent="1" vertex="1">
          <mxGeometry x="-688" y="1689.5" width="34" height="20" as="geometry" />
        </mxCell>
        <mxCell id="7AcrwSVY3at2XOGS3Gc--125" value="data" style="text;html=1;strokeColor=none;fillColor=none;align=left;verticalAlign=middle;whiteSpace=wrap;rounded=0;fontFamily=Courier New;fontSize=18;fontColor=default;shadow=0;" parent="1" vertex="1">
          <mxGeometry x="-690" y="1668.5" width="25" height="19" as="geometry" />
        </mxCell>
        <mxCell id="7AcrwSVY3at2XOGS3Gc--126" value="q" style="text;html=1;strokeColor=none;fillColor=none;align=right;verticalAlign=middle;whiteSpace=wrap;rounded=0;fontFamily=Courier New;fontSize=18;fontColor=default;shadow=0;" parent="1" vertex="1">
          <mxGeometry x="-432" y="1516" width="27" height="30" as="geometry" />
        </mxCell>
        <mxCell id="7AcrwSVY3at2XOGS3Gc--129" style="edgeStyle=orthogonalEdgeStyle;rounded=0;orthogonalLoop=1;jettySize=auto;html=1;endArrow=none;endFill=0;startArrow=classic;startFill=1;exitX=0.001;exitY=0.27;exitDx=0;exitDy=0;exitPerimeter=0;shadow=0;entryX=0.458;entryY=0;entryDx=0;entryDy=0;entryPerimeter=0;" parent="1" source="7AcrwSVY3at2XOGS3Gc--121" target="7AcrwSVY3at2XOGS3Gc--110" edge="1">
          <mxGeometry relative="1" as="geometry">
            <mxPoint x="-699" y="1515" as="sourcePoint" />
            <mxPoint x="-840" y="1514" as="targetPoint" />
          </mxGeometry>
        </mxCell>
        <mxCell id="7AcrwSVY3at2XOGS3Gc--131" style="edgeStyle=orthogonalEdgeStyle;rounded=0;orthogonalLoop=1;jettySize=auto;html=1;endArrow=none;endFill=0;startArrow=classic;startFill=1;exitX=-0.001;exitY=0.812;exitDx=0;exitDy=0;exitPerimeter=0;shadow=0;" parent="1" edge="1">
          <mxGeometry relative="1" as="geometry">
            <mxPoint x="-697.3029999999999" y="1655.036" as="sourcePoint" />
            <mxPoint x="-1311" y="1655" as="targetPoint" />
          </mxGeometry>
        </mxCell>
        <mxCell id="7AcrwSVY3at2XOGS3Gc--132" value="&lt;p style=&quot;font-size: 26px;&quot;&gt;&lt;font style=&quot;font-size: 26px;&quot; face=&quot;Courier New&quot;&gt;iInstLd&lt;/font&gt;&lt;/p&gt;" style="text;html=1;strokeColor=none;fillColor=none;align=right;verticalAlign=middle;whiteSpace=wrap;rounded=0;fontFamily=Helvetica;fontSize=26;fontColor=default;shadow=0;" parent="1" vertex="1">
          <mxGeometry x="-1390" y="1643.5" width="75" height="21" as="geometry" />
        </mxCell>
        <mxCell id="7AcrwSVY3at2XOGS3Gc--133" style="edgeStyle=orthogonalEdgeStyle;rounded=0;orthogonalLoop=1;jettySize=auto;html=1;endArrow=none;endFill=0;startArrow=classic;startFill=1;exitX=-0.002;exitY=0.917;exitDx=0;exitDy=0;exitPerimeter=0;shadow=0;" parent="1" edge="1">
          <mxGeometry relative="1" as="geometry">
            <mxPoint x="-697.606" y="1676.8509999999997" as="sourcePoint" />
            <mxPoint x="-1310" y="1676" as="targetPoint" />
            <Array as="points">
              <mxPoint x="-1051" y="1677" />
              <mxPoint x="-1404" y="1676" />
            </Array>
          </mxGeometry>
        </mxCell>
        <mxCell id="7AcrwSVY3at2XOGS3Gc--134" value="&lt;p style=&quot;font-size: 26px;&quot;&gt;&lt;font style=&quot;font-size: 26px;&quot; face=&quot;Courier New&quot;&gt;iInstExt&lt;/font&gt;&lt;/p&gt;" style="text;html=1;strokeColor=none;fillColor=none;align=right;verticalAlign=middle;whiteSpace=wrap;rounded=0;fontFamily=Helvetica;fontSize=26;fontColor=default;shadow=0;" parent="1" vertex="1">
          <mxGeometry x="-1402" y="1667.5" width="89" height="16" as="geometry" />
        </mxCell>
        <mxCell id="7AcrwSVY3at2XOGS3Gc--136" value="&lt;font style=&quot;font-size: 18px;&quot; face=&quot;Courier New&quot;&gt;s_Inst&lt;/font&gt;" style="text;html=1;strokeColor=none;fillColor=none;align=center;verticalAlign=middle;whiteSpace=wrap;rounded=0;shadow=0;" parent="1" vertex="1">
          <mxGeometry x="-207" y="1543" width="63" height="12.5" as="geometry" />
        </mxCell>
        <mxCell id="7AcrwSVY3at2XOGS3Gc--137" value="&lt;b&gt;&lt;font style=&quot;font-size: 23px;&quot;&gt;DMem&lt;/font&gt;&lt;/b&gt;" style="whiteSpace=wrap;html=1;aspect=fixed;rounded=0;fontFamily=Courier New;fontSize=12;fontColor=default;fillColor=none;gradientColor=none;shadow=0;" parent="1" vertex="1">
          <mxGeometry x="2206" y="1434" width="303" height="303" as="geometry" />
        </mxCell>
        <mxCell id="7AcrwSVY3at2XOGS3Gc--138" value="addr" style="text;html=1;strokeColor=none;fillColor=none;align=left;verticalAlign=middle;whiteSpace=wrap;rounded=0;fontFamily=Courier New;fontSize=18;fontColor=default;shadow=0;" parent="1" vertex="1">
          <mxGeometry x="2212" y="1501" width="60" height="30" as="geometry" />
        </mxCell>
        <mxCell id="7AcrwSVY3at2XOGS3Gc--139" value="data" style="text;html=1;strokeColor=none;fillColor=none;align=left;verticalAlign=middle;whiteSpace=wrap;rounded=0;fontFamily=Courier New;fontSize=18;fontColor=default;shadow=0;" parent="1" vertex="1">
          <mxGeometry x="2212" y="1665" width="60" height="30" as="geometry" />
        </mxCell>
        <mxCell id="7AcrwSVY3at2XOGS3Gc--140" value="clk" style="text;html=1;strokeColor=none;fillColor=none;align=left;verticalAlign=middle;whiteSpace=wrap;rounded=0;fontFamily=Courier New;fontSize=18;fontColor=default;shadow=0;" parent="1" vertex="1">
          <mxGeometry x="2212" y="1459" width="60" height="30" as="geometry" />
        </mxCell>
        <mxCell id="7AcrwSVY3at2XOGS3Gc--141" value="we" style="text;html=1;strokeColor=none;fillColor=none;align=left;verticalAlign=middle;whiteSpace=wrap;rounded=0;fontFamily=Courier New;fontSize=18;fontColor=default;shadow=0;" parent="1" vertex="1">
          <mxGeometry x="2212" y="1695" width="60" height="30" as="geometry" />
        </mxCell>
        <mxCell id="7AcrwSVY3at2XOGS3Gc--142" value="q" style="text;html=1;strokeColor=none;fillColor=none;align=right;verticalAlign=middle;whiteSpace=wrap;rounded=0;fontFamily=Courier New;fontSize=18;fontColor=default;shadow=0;" parent="1" vertex="1">
          <mxGeometry x="2471" y="1471" width="27" height="30" as="geometry" />
        </mxCell>
        <mxCell id="7AcrwSVY3at2XOGS3Gc--143" style="edgeStyle=orthogonalEdgeStyle;rounded=0;orthogonalLoop=1;jettySize=auto;html=1;endArrow=none;endFill=0;startArrow=classic;startFill=1;exitX=-0.001;exitY=0.132;exitDx=0;exitDy=0;exitPerimeter=0;shadow=0;" parent="1" source="7AcrwSVY3at2XOGS3Gc--137" edge="1">
          <mxGeometry relative="1" as="geometry">
            <mxPoint x="2198" y="1473.5100000000002" as="sourcePoint" />
            <mxPoint x="1833" y="1474" as="targetPoint" />
          </mxGeometry>
        </mxCell>
        <mxCell id="7AcrwSVY3at2XOGS3Gc--145" style="edgeStyle=orthogonalEdgeStyle;rounded=0;orthogonalLoop=1;jettySize=auto;html=1;endArrow=none;endFill=0;startArrow=classic;startFill=1;exitX=0.001;exitY=0.27;exitDx=0;exitDy=0;exitPerimeter=0;shadow=0;" parent="1" source="7AcrwSVY3at2XOGS3Gc--137" edge="1">
          <mxGeometry relative="1" as="geometry">
            <mxPoint x="2204" y="1516" as="sourcePoint" />
            <mxPoint x="1967" y="1516" as="targetPoint" />
          </mxGeometry>
        </mxCell>
        <mxCell id="7AcrwSVY3at2XOGS3Gc--146" value="&lt;p style=&quot;font-size: 18px;&quot;&gt;&lt;font face=&quot;Courier New&quot;&gt;s_DMemAddr&lt;/font&gt;&lt;br&gt;&lt;/p&gt;" style="text;html=1;strokeColor=none;fillColor=none;align=right;verticalAlign=middle;whiteSpace=wrap;rounded=0;fontFamily=Helvetica;fontSize=12;fontColor=default;shadow=0;" parent="1" vertex="1">
          <mxGeometry x="2068.36" y="1493" width="110.64" height="17" as="geometry" />
        </mxCell>
        <mxCell id="7AcrwSVY3at2XOGS3Gc--147" style="edgeStyle=orthogonalEdgeStyle;rounded=0;orthogonalLoop=1;jettySize=auto;html=1;endArrow=none;endFill=0;startArrow=classic;startFill=1;exitX=-0.001;exitY=0.812;exitDx=0;exitDy=0;exitPerimeter=0;shadow=0;" parent="1" source="7AcrwSVY3at2XOGS3Gc--137" edge="1">
          <mxGeometry relative="1" as="geometry">
            <mxPoint x="2206.0029999999997" y="1679.81" as="sourcePoint" />
            <mxPoint x="1853" y="1680" as="targetPoint" />
          </mxGeometry>
        </mxCell>
        <mxCell id="7AcrwSVY3at2XOGS3Gc--148" value="&lt;p style=&quot;font-size: 18px;&quot;&gt;&lt;font face=&quot;Courier New&quot;&gt;s_DMemData&lt;/font&gt;&lt;br&gt;&lt;/p&gt;" style="text;html=1;strokeColor=none;fillColor=none;align=right;verticalAlign=middle;whiteSpace=wrap;rounded=0;fontFamily=Helvetica;fontSize=12;fontColor=default;shadow=0;" parent="1" vertex="1">
          <mxGeometry x="2080" y="1659" width="103" height="14" as="geometry" />
        </mxCell>
        <mxCell id="7AcrwSVY3at2XOGS3Gc--149" style="edgeStyle=orthogonalEdgeStyle;rounded=0;orthogonalLoop=1;jettySize=auto;html=1;endArrow=none;endFill=0;startArrow=classic;startFill=1;exitX=-0.002;exitY=0.917;exitDx=0;exitDy=0;exitPerimeter=0;shadow=0;strokeColor=#FF3333;" parent="1" source="7AcrwSVY3at2XOGS3Gc--137" edge="1">
          <mxGeometry relative="1" as="geometry">
            <mxPoint x="2206.0029999999997" y="1711.81" as="sourcePoint" />
            <mxPoint x="2015" y="1712" as="targetPoint" />
          </mxGeometry>
        </mxCell>
        <mxCell id="7AcrwSVY3at2XOGS3Gc--150" value="&lt;p style=&quot;font-size: 18px;&quot;&gt;&lt;font face=&quot;Courier New&quot;&gt;s_DMemWr&lt;/font&gt;&lt;br&gt;&lt;/p&gt;" style="text;html=1;strokeColor=none;fillColor=none;align=right;verticalAlign=middle;whiteSpace=wrap;rounded=0;fontFamily=Helvetica;fontSize=12;fontColor=default;shadow=0;" parent="1" vertex="1">
          <mxGeometry x="2060.3" y="1693" width="101" height="13" as="geometry" />
        </mxCell>
        <mxCell id="7AcrwSVY3at2XOGS3Gc--151" style="edgeStyle=orthogonalEdgeStyle;rounded=0;orthogonalLoop=1;jettySize=auto;html=1;endArrow=none;endFill=0;startArrow=classic;startFill=1;entryX=1.001;entryY=0.18;entryDx=0;entryDy=0;entryPerimeter=0;shadow=0;exitX=0.196;exitY=1;exitDx=0;exitDy=0;exitPerimeter=0;" parent="1" source="Ao4q6FNZmFbgt5mi8pkg-170" target="7AcrwSVY3at2XOGS3Gc--137" edge="1">
          <mxGeometry relative="1" as="geometry">
            <mxPoint x="2643" y="1489" as="sourcePoint" />
            <mxPoint x="2509" y="1488.0100000000002" as="targetPoint" />
          </mxGeometry>
        </mxCell>
        <mxCell id="7AcrwSVY3at2XOGS3Gc--152" value="&lt;font style=&quot;font-size: 18px;&quot; face=&quot;Courier New&quot;&gt;s_DMemOut&lt;/font&gt;" style="text;html=1;strokeColor=none;fillColor=none;align=center;verticalAlign=middle;whiteSpace=wrap;rounded=0;shadow=0;" parent="1" vertex="1">
          <mxGeometry x="2518" y="1466.75" width="106" height="16.5" as="geometry" />
        </mxCell>
        <mxCell id="7AcrwSVY3at2XOGS3Gc--157" style="rounded=0;orthogonalLoop=1;jettySize=auto;html=1;exitX=0;exitY=0.5;exitDx=0;exitDy=0;shadow=0;fontFamily=Courier New;fontSize=23;fontColor=default;startArrow=classic;startFill=1;endArrow=none;endFill=0;" parent="1" edge="1">
          <mxGeometry relative="1" as="geometry">
            <mxPoint x="-130" y="1869" as="targetPoint" />
            <mxPoint x="438" y="1869.75" as="sourcePoint" />
          </mxGeometry>
        </mxCell>
        <mxCell id="7AcrwSVY3at2XOGS3Gc--155" value="&lt;div&gt;&lt;b&gt;Sign&lt;/b&gt;&lt;/div&gt;&lt;div&gt;&lt;b&gt;Ext&lt;br&gt;&lt;/b&gt;&lt;/div&gt;" style="ellipse;whiteSpace=wrap;html=1;rounded=0;fontFamily=Courier New;fontSize=23;fontColor=default;fillColor=none;gradientColor=none;" parent="1" vertex="1">
          <mxGeometry x="426.5" y="1844" width="102" height="135.08" as="geometry" />
        </mxCell>
        <mxCell id="7AcrwSVY3at2XOGS3Gc--158" style="rounded=0;orthogonalLoop=1;jettySize=auto;html=1;shadow=0;fontFamily=Courier New;fontSize=23;fontColor=default;startArrow=none;startFill=0;endArrow=none;endFill=0;" parent="1" edge="1">
          <mxGeometry relative="1" as="geometry">
            <mxPoint x="674" y="1940" as="sourcePoint" />
            <mxPoint x="523.5" y="1939.5100000000002" as="targetPoint" />
          </mxGeometry>
        </mxCell>
        <mxCell id="7AcrwSVY3at2XOGS3Gc--159" value="" style="endArrow=none;html=1;rounded=0;shadow=0;fontFamily=Courier New;fontSize=23;fontColor=default;" parent="1" edge="1">
          <mxGeometry width="50" height="50" relative="1" as="geometry">
            <mxPoint x="407" y="1865.75" as="sourcePoint" />
            <mxPoint x="411" y="1871.75" as="targetPoint" />
          </mxGeometry>
        </mxCell>
        <mxCell id="7AcrwSVY3at2XOGS3Gc--160" value="16" style="text;html=1;strokeColor=none;fillColor=none;align=center;verticalAlign=middle;whiteSpace=wrap;rounded=0;fontFamily=Courier New;fontSize=12;fontColor=default;" parent="1" vertex="1">
          <mxGeometry x="404" y="1871.25" width="14" height="11" as="geometry" />
        </mxCell>
        <mxCell id="7AcrwSVY3at2XOGS3Gc--161" value="" style="endArrow=none;html=1;rounded=0;shadow=0;fontFamily=Courier New;fontSize=23;fontColor=default;" parent="1" edge="1">
          <mxGeometry width="50" height="50" relative="1" as="geometry">
            <mxPoint x="528" y="1937" as="sourcePoint" />
            <mxPoint x="531.9999999999998" y="1943" as="targetPoint" />
          </mxGeometry>
        </mxCell>
        <mxCell id="7AcrwSVY3at2XOGS3Gc--162" value="32" style="text;html=1;strokeColor=none;fillColor=none;align=center;verticalAlign=middle;whiteSpace=wrap;rounded=0;fontFamily=Courier New;fontSize=12;fontColor=default;" parent="1" vertex="1">
          <mxGeometry x="525" y="1942.5" width="14" height="11" as="geometry" />
        </mxCell>
        <mxCell id="7AcrwSVY3at2XOGS3Gc--164" value="i_data16" style="text;html=1;strokeColor=none;fillColor=none;align=left;verticalAlign=middle;whiteSpace=wrap;rounded=0;fontFamily=Courier New;fontSize=12;fontColor=default;shadow=0;" parent="1" vertex="1">
          <mxGeometry x="439" y="1864" width="59" height="9.5" as="geometry" />
        </mxCell>
        <mxCell id="7AcrwSVY3at2XOGS3Gc--165" value="o_data32" style="text;html=1;strokeColor=none;fillColor=none;align=right;verticalAlign=middle;whiteSpace=wrap;rounded=0;fontFamily=Courier New;fontSize=12;fontColor=default;shadow=0;" parent="1" vertex="1">
          <mxGeometry x="464" y="1935" width="60" height="9.5" as="geometry" />
        </mxCell>
        <mxCell id="7AcrwSVY3at2XOGS3Gc--166" value="&lt;font style=&quot;font-size: 6px;&quot;&gt;i_extSelect&lt;/font&gt;" style="text;html=1;strokeColor=none;fillColor=none;align=center;verticalAlign=middle;whiteSpace=wrap;rounded=0;fontFamily=Courier New;fontSize=12;fontColor=default;shadow=0;" parent="1" vertex="1">
          <mxGeometry x="456.5" y="1965" width="42" height="4.5" as="geometry" />
        </mxCell>
        <mxCell id="7AcrwSVY3at2XOGS3Gc--168" style="rounded=0;orthogonalLoop=1;jettySize=auto;html=1;shadow=0;fontFamily=Courier New;fontSize=23;fontColor=default;startArrow=classic;startFill=1;endArrow=none;endFill=0;strokeColor=#FF3333;" parent="1" edge="1">
          <mxGeometry relative="1" as="geometry">
            <mxPoint x="477" y="1979" as="sourcePoint" />
            <mxPoint x="477" y="2013" as="targetPoint" />
          </mxGeometry>
        </mxCell>
        <mxCell id="Ao4q6FNZmFbgt5mi8pkg-91" style="edgeStyle=orthogonalEdgeStyle;rounded=0;orthogonalLoop=1;jettySize=auto;html=1;startArrow=none;" parent="1" source="1kfZFv9F9Y2PhZVG0dYN-92" edge="1">
          <mxGeometry relative="1" as="geometry">
            <mxPoint x="-953" y="1490" as="targetPoint" />
          </mxGeometry>
        </mxCell>
        <mxCell id="1kfZFv9F9Y2PhZVG0dYN-91" style="edgeStyle=orthogonalEdgeStyle;rounded=0;orthogonalLoop=1;jettySize=auto;html=1;exitX=0;exitY=0.5;exitDx=0;exitDy=0;fontSize=15;startArrow=none;startFill=0;endArrow=none;endFill=0;" parent="1" source="7AcrwSVY3at2XOGS3Gc--169" edge="1">
          <mxGeometry relative="1" as="geometry">
            <mxPoint x="-1266" y="1490" as="targetPoint" />
          </mxGeometry>
        </mxCell>
        <mxCell id="7AcrwSVY3at2XOGS3Gc--169" value="&lt;font style=&quot;font-size: 23px;&quot;&gt;&lt;b&gt;PC&lt;/b&gt;&lt;/font&gt;" style="rounded=0;whiteSpace=wrap;html=1;fontFamily=Courier New;fontSize=12;fontColor=default;fillColor=none;gradientColor=none;" parent="1" vertex="1">
          <mxGeometry x="-1232" y="1376" width="71.59" height="227" as="geometry" />
        </mxCell>
        <mxCell id="Ao4q6FNZmFbgt5mi8pkg-1" style="rounded=0;orthogonalLoop=1;jettySize=auto;html=1;exitX=0;exitY=0.5;exitDx=0;exitDy=0;shadow=0;fontFamily=Courier New;fontSize=23;fontColor=default;startArrow=classic;startFill=1;endArrow=none;endFill=0;" parent="1" edge="1">
          <mxGeometry relative="1" as="geometry">
            <mxPoint x="-129" y="1195" as="targetPoint" />
            <mxPoint x="-89.00000000000045" y="1195.75" as="sourcePoint" />
          </mxGeometry>
        </mxCell>
        <mxCell id="Ao4q6FNZmFbgt5mi8pkg-2" value="&lt;div&gt;&lt;b&gt;Control&lt;/b&gt;&lt;/div&gt;&lt;div&gt;&lt;b&gt;Unit&lt;br&gt;&lt;/b&gt;&lt;/div&gt;" style="ellipse;whiteSpace=wrap;html=1;rounded=0;fontFamily=Courier New;fontSize=23;fontColor=default;fillColor=none;gradientColor=none;strokeColor=#FF3333;" parent="1" vertex="1">
          <mxGeometry x="-91" y="1054" width="185" height="353" as="geometry" />
        </mxCell>
        <mxCell id="Ao4q6FNZmFbgt5mi8pkg-4" value="" style="endArrow=none;html=1;rounded=0;shadow=0;fontFamily=Courier New;fontSize=23;fontColor=default;" parent="1" edge="1">
          <mxGeometry width="50" height="50" relative="1" as="geometry">
            <mxPoint x="-120" y="1192.75" as="sourcePoint" />
            <mxPoint x="-116" y="1198.7499999999995" as="targetPoint" />
          </mxGeometry>
        </mxCell>
        <mxCell id="Ao4q6FNZmFbgt5mi8pkg-5" value="6" style="text;html=1;strokeColor=none;fillColor=none;align=center;verticalAlign=middle;whiteSpace=wrap;rounded=0;fontFamily=Courier New;fontSize=12;fontColor=default;" parent="1" vertex="1">
          <mxGeometry x="-123" y="1198.25" width="14" height="11" as="geometry" />
        </mxCell>
        <mxCell id="Ao4q6FNZmFbgt5mi8pkg-8" value="i_opCode" style="text;html=1;strokeColor=none;fillColor=none;align=left;verticalAlign=middle;whiteSpace=wrap;rounded=0;fontFamily=Courier New;fontSize=12;fontColor=default;shadow=0;" parent="1" vertex="1">
          <mxGeometry x="-88" y="1191" width="59" height="9.5" as="geometry" />
        </mxCell>
        <mxCell id="Ao4q6FNZmFbgt5mi8pkg-12" style="rounded=0;orthogonalLoop=1;jettySize=auto;html=1;exitX=0;exitY=0.5;exitDx=0;exitDy=0;shadow=0;fontFamily=Courier New;fontSize=23;fontColor=default;startArrow=classic;startFill=1;endArrow=none;endFill=0;" parent="1" edge="1">
          <mxGeometry relative="1" as="geometry">
            <mxPoint x="-129" y="1260" as="targetPoint" />
            <mxPoint x="-90.00000000000045" y="1260.75" as="sourcePoint" />
          </mxGeometry>
        </mxCell>
        <mxCell id="Ao4q6FNZmFbgt5mi8pkg-13" value="" style="endArrow=none;html=1;rounded=0;shadow=0;fontFamily=Courier New;fontSize=23;fontColor=default;" parent="1" edge="1">
          <mxGeometry width="50" height="50" relative="1" as="geometry">
            <mxPoint x="-121" y="1257.75" as="sourcePoint" />
            <mxPoint x="-117" y="1263.7499999999995" as="targetPoint" />
          </mxGeometry>
        </mxCell>
        <mxCell id="Ao4q6FNZmFbgt5mi8pkg-14" value="6" style="text;html=1;strokeColor=none;fillColor=none;align=center;verticalAlign=middle;whiteSpace=wrap;rounded=0;fontFamily=Courier New;fontSize=12;fontColor=default;" parent="1" vertex="1">
          <mxGeometry x="-124" y="1263.25" width="14" height="11" as="geometry" />
        </mxCell>
        <mxCell id="Ao4q6FNZmFbgt5mi8pkg-15" value="&lt;div&gt;i_funct&lt;/div&gt;" style="text;html=1;strokeColor=none;fillColor=none;align=left;verticalAlign=middle;whiteSpace=wrap;rounded=0;fontFamily=Courier New;fontSize=12;fontColor=default;shadow=0;" parent="1" vertex="1">
          <mxGeometry x="-89" y="1256" width="59" height="9.5" as="geometry" />
        </mxCell>
        <mxCell id="Ao4q6FNZmFbgt5mi8pkg-32" style="rounded=0;orthogonalLoop=1;jettySize=auto;html=1;shadow=0;fontFamily=Courier New;fontSize=23;fontColor=default;startArrow=classic;startFill=1;endArrow=none;endFill=0;strokeColor=#FF3333;" parent="1" edge="1">
          <mxGeometry relative="1" as="geometry">
            <mxPoint x="68" y="2032" as="targetPoint" />
            <mxPoint x="732" y="2032.25" as="sourcePoint" />
          </mxGeometry>
        </mxCell>
        <mxCell id="Ao4q6FNZmFbgt5mi8pkg-33" value="&lt;div&gt;&lt;b&gt;ALU&lt;br&gt;&lt;/b&gt;&lt;/div&gt;&lt;div&gt;&lt;b&gt;Control&lt;/b&gt;&lt;/div&gt;&lt;div&gt;&lt;b&gt;Unit&lt;br&gt;&lt;/b&gt;&lt;/div&gt;" style="ellipse;whiteSpace=wrap;html=1;rounded=0;fontFamily=Courier New;fontSize=23;fontColor=default;fillColor=none;gradientColor=none;strokeColor=#FF3333;" parent="1" vertex="1">
          <mxGeometry x="718.75" y="1848" width="185" height="245" as="geometry" />
        </mxCell>
        <mxCell id="Ao4q6FNZmFbgt5mi8pkg-34" style="rounded=0;orthogonalLoop=1;jettySize=auto;html=1;shadow=0;fontFamily=Courier New;fontSize=23;fontColor=default;startArrow=none;startFill=0;endArrow=none;endFill=0;strokeColor=#FF3333;" parent="1" edge="1">
          <mxGeometry relative="1" as="geometry">
            <mxPoint x="1406" y="1990" as="sourcePoint" />
            <mxPoint x="903" y="1990.2500000000005" as="targetPoint" />
          </mxGeometry>
        </mxCell>
        <mxCell id="Ao4q6FNZmFbgt5mi8pkg-37" value="" style="endArrow=none;html=1;rounded=0;shadow=0;fontFamily=Courier New;fontSize=23;fontColor=default;strokeColor=#FF3333;" parent="1" edge="1">
          <mxGeometry width="50" height="50" relative="1" as="geometry">
            <mxPoint x="920" y="1987.5" as="sourcePoint" />
            <mxPoint x="924" y="1993.4999999999995" as="targetPoint" />
          </mxGeometry>
        </mxCell>
        <mxCell id="Ao4q6FNZmFbgt5mi8pkg-38" value="1" style="text;html=1;strokeColor=none;fillColor=none;align=center;verticalAlign=middle;whiteSpace=wrap;rounded=0;fontFamily=Courier New;fontSize=12;fontColor=default;" parent="1" vertex="1">
          <mxGeometry x="917" y="1993" width="14" height="11" as="geometry" />
        </mxCell>
        <mxCell id="Ao4q6FNZmFbgt5mi8pkg-40" value="nAdd_Sub" style="text;html=1;strokeColor=none;fillColor=none;align=right;verticalAlign=middle;whiteSpace=wrap;rounded=0;fontFamily=Courier New;fontSize=12;fontColor=default;shadow=0;" parent="1" vertex="1">
          <mxGeometry x="843" y="1984.75" width="59" height="9.5" as="geometry" />
        </mxCell>
        <mxCell id="Ao4q6FNZmFbgt5mi8pkg-47" value="OpA" style="text;html=1;strokeColor=none;fillColor=none;align=left;verticalAlign=middle;whiteSpace=wrap;rounded=0;fontFamily=Courier New;fontSize=18;fontColor=default;shadow=0;" parent="1" vertex="1">
          <mxGeometry x="1311" y="1466.75" width="114" height="30" as="geometry" />
        </mxCell>
        <mxCell id="Ao4q6FNZmFbgt5mi8pkg-48" value="OpB" style="text;html=1;strokeColor=none;fillColor=none;align=left;verticalAlign=middle;whiteSpace=wrap;rounded=0;fontFamily=Courier New;fontSize=18;fontColor=default;shadow=0;" parent="1" vertex="1">
          <mxGeometry x="1310" y="1540" width="46" height="30" as="geometry" />
        </mxCell>
        <mxCell id="Ao4q6FNZmFbgt5mi8pkg-52" value="ALUResult" style="text;html=1;strokeColor=none;fillColor=none;align=right;verticalAlign=middle;whiteSpace=wrap;rounded=0;fontFamily=Courier New;fontSize=18;fontColor=default;shadow=0;" parent="1" vertex="1">
          <mxGeometry x="1338" y="1590" width="125" height="30" as="geometry" />
        </mxCell>
        <mxCell id="Ao4q6FNZmFbgt5mi8pkg-53" style="edgeStyle=orthogonalEdgeStyle;rounded=0;orthogonalLoop=1;jettySize=auto;html=1;endArrow=none;endFill=0;startArrow=none;startFill=0;shadow=0;" parent="1" source="Ao4q6FNZmFbgt5mi8pkg-180" edge="1">
          <mxGeometry relative="1" as="geometry">
            <mxPoint x="1419" y="1811" as="sourcePoint" />
            <mxPoint x="1467" y="1605" as="targetPoint" />
            <Array as="points" />
          </mxGeometry>
        </mxCell>
        <mxCell id="Ao4q6FNZmFbgt5mi8pkg-54" value="&lt;b&gt;ADD&lt;/b&gt;" style="shape=trapezoid;perimeter=trapezoidPerimeter;whiteSpace=wrap;html=1;fixedSize=1;rounded=0;fontFamily=Courier New;fontSize=23;fontColor=default;fillColor=none;gradientColor=none;rotation=90;size=77.67592592592564;direction=east;horizontal=0;shadow=0;" parent="1" vertex="1">
          <mxGeometry x="-1005" y="788.66" width="303" height="151.5" as="geometry" />
        </mxCell>
        <mxCell id="Ao4q6FNZmFbgt5mi8pkg-55" value="PCval" style="text;html=1;strokeColor=none;fillColor=none;align=left;verticalAlign=middle;whiteSpace=wrap;rounded=0;fontFamily=Courier New;fontSize=18;fontColor=default;shadow=0;" parent="1" vertex="1">
          <mxGeometry x="-930" y="786.16" width="114" height="30" as="geometry" />
        </mxCell>
        <mxCell id="Ao4q6FNZmFbgt5mi8pkg-56" value="4" style="text;html=1;strokeColor=none;fillColor=none;align=left;verticalAlign=middle;whiteSpace=wrap;rounded=0;fontFamily=Courier New;fontSize=18;fontColor=default;shadow=0;" parent="1" vertex="1">
          <mxGeometry x="-930" y="927.1600000000001" width="114" height="30" as="geometry" />
        </mxCell>
        <mxCell id="Ao4q6FNZmFbgt5mi8pkg-57" style="edgeStyle=orthogonalEdgeStyle;rounded=0;orthogonalLoop=1;jettySize=auto;html=1;endArrow=none;endFill=0;startArrow=classic;startFill=1;exitX=0.001;exitY=0.27;exitDx=0;exitDy=0;exitPerimeter=0;shadow=0;" parent="1" edge="1">
          <mxGeometry relative="1" as="geometry">
            <mxPoint x="-929.9970000000003" y="801.1800000000004" as="sourcePoint" />
            <mxPoint x="-1122" y="801" as="targetPoint" />
            <Array as="points">
              <mxPoint x="-964.01" y="801.37" />
              <mxPoint x="-964.01" y="801.37" />
            </Array>
          </mxGeometry>
        </mxCell>
        <mxCell id="Ao4q6FNZmFbgt5mi8pkg-58" style="edgeStyle=orthogonalEdgeStyle;rounded=0;orthogonalLoop=1;jettySize=auto;html=1;endArrow=none;endFill=0;startArrow=classic;startFill=1;entryX=1;entryY=0.5;entryDx=0;entryDy=0;exitX=0.001;exitY=0.27;exitDx=0;exitDy=0;exitPerimeter=0;shadow=0;" parent="1" edge="1">
          <mxGeometry relative="1" as="geometry">
            <mxPoint x="-929.9970000000003" y="940.9700000000005" as="sourcePoint" />
            <mxPoint x="-975" y="941.1600000000001" as="targetPoint" />
            <Array as="points">
              <mxPoint x="-964.01" y="941.1600000000001" />
              <mxPoint x="-964.01" y="941.1600000000001" />
            </Array>
          </mxGeometry>
        </mxCell>
        <mxCell id="Ao4q6FNZmFbgt5mi8pkg-59" value="PCplus4" style="text;html=1;strokeColor=none;fillColor=none;align=right;verticalAlign=middle;whiteSpace=wrap;rounded=0;fontFamily=Courier New;fontSize=18;fontColor=default;shadow=0;" parent="1" vertex="1">
          <mxGeometry x="-906" y="816.16" width="125" height="30" as="geometry" />
        </mxCell>
        <mxCell id="Ao4q6FNZmFbgt5mi8pkg-61" value="&lt;b&gt;ADD&lt;/b&gt;" style="shape=trapezoid;perimeter=trapezoidPerimeter;whiteSpace=wrap;html=1;fixedSize=1;rounded=0;fontFamily=Courier New;fontSize=23;fontColor=default;fillColor=none;gradientColor=none;rotation=90;size=77.67592592592564;direction=east;horizontal=0;shadow=0;" parent="1" vertex="1">
          <mxGeometry x="1973" y="832.05" width="303" height="151.5" as="geometry" />
        </mxCell>
        <mxCell id="Ao4q6FNZmFbgt5mi8pkg-62" value="PCplus4" style="text;html=1;strokeColor=none;fillColor=none;align=left;verticalAlign=middle;whiteSpace=wrap;rounded=0;fontFamily=Courier New;fontSize=18;fontColor=default;shadow=0;" parent="1" vertex="1">
          <mxGeometry x="2048" y="819.55" width="114" height="30" as="geometry" />
        </mxCell>
        <mxCell id="Ao4q6FNZmFbgt5mi8pkg-63" value="branchTarget" style="text;html=1;strokeColor=none;fillColor=none;align=left;verticalAlign=middle;whiteSpace=wrap;rounded=0;fontFamily=Courier New;fontSize=18;fontColor=default;shadow=0;" parent="1" vertex="1">
          <mxGeometry x="2048" y="952.55" width="114" height="30" as="geometry" />
        </mxCell>
        <mxCell id="Ao4q6FNZmFbgt5mi8pkg-64" style="edgeStyle=orthogonalEdgeStyle;rounded=0;orthogonalLoop=1;jettySize=auto;html=1;endArrow=none;endFill=0;startArrow=none;startFill=1;shadow=0;exitX=0;exitY=0.5;exitDx=0;exitDy=0;entryX=0.407;entryY=-0.002;entryDx=0;entryDy=0;entryPerimeter=0;" parent="1" source="1kfZFv9F9Y2PhZVG0dYN-102" target="Ao4q6FNZmFbgt5mi8pkg-54" edge="1">
          <mxGeometry relative="1" as="geometry">
            <mxPoint x="1273" y="836" as="sourcePoint" />
            <mxPoint x="-968" y="837" as="targetPoint" />
            <Array as="points" />
          </mxGeometry>
        </mxCell>
        <mxCell id="Ao4q6FNZmFbgt5mi8pkg-66" value="BranchResult" style="text;html=1;strokeColor=none;fillColor=none;align=right;verticalAlign=middle;whiteSpace=wrap;rounded=0;fontFamily=Courier New;fontSize=18;fontColor=default;shadow=0;" parent="1" vertex="1">
          <mxGeometry x="2075" y="921.55" width="125" height="30" as="geometry" />
        </mxCell>
        <mxCell id="Ao4q6FNZmFbgt5mi8pkg-67" style="edgeStyle=orthogonalEdgeStyle;rounded=0;orthogonalLoop=1;jettySize=auto;html=1;endArrow=none;endFill=0;startArrow=classic;startFill=1;exitX=0.765;exitY=1.033;exitDx=0;exitDy=0;shadow=0;exitPerimeter=0;" parent="1" source="1kfZFv9F9Y2PhZVG0dYN-57" edge="1">
          <mxGeometry relative="1" as="geometry">
            <mxPoint x="2250.7200000000003" y="936.3799999999999" as="sourcePoint" />
            <mxPoint x="2200" y="936.7199999999996" as="targetPoint" />
            <Array as="points">
              <mxPoint x="2225" y="936" />
            </Array>
          </mxGeometry>
        </mxCell>
        <mxCell id="Ao4q6FNZmFbgt5mi8pkg-68" style="rounded=0;orthogonalLoop=1;jettySize=auto;html=1;exitX=0;exitY=0.5;exitDx=0;exitDy=0;shadow=0;fontFamily=Courier New;fontSize=23;fontColor=default;startArrow=classic;startFill=1;endArrow=none;endFill=0;" parent="1" edge="1">
          <mxGeometry relative="1" as="geometry">
            <mxPoint x="-206" y="686" as="targetPoint" />
            <mxPoint x="-93.5" y="687.41" as="sourcePoint" />
          </mxGeometry>
        </mxCell>
        <mxCell id="Ao4q6FNZmFbgt5mi8pkg-69" value="&lt;div&gt;&lt;b&gt;Shift&lt;/b&gt;&lt;/div&gt;&lt;div&gt;&lt;b&gt;Left 2&lt;br&gt;&lt;/b&gt;&lt;/div&gt;" style="ellipse;whiteSpace=wrap;html=1;rounded=0;fontFamily=Courier New;fontSize=23;fontColor=default;fillColor=none;gradientColor=none;" parent="1" vertex="1">
          <mxGeometry x="-93.5" y="609" width="121.5" height="160.91" as="geometry" />
        </mxCell>
        <mxCell id="Ao4q6FNZmFbgt5mi8pkg-70" style="rounded=0;orthogonalLoop=1;jettySize=auto;html=1;shadow=0;fontFamily=Courier New;fontSize=23;fontColor=default;startArrow=none;startFill=0;endArrow=none;endFill=0;" parent="1" edge="1">
          <mxGeometry relative="1" as="geometry">
            <mxPoint x="2512" y="688" as="sourcePoint" />
            <mxPoint x="28" y="688.1600000000004" as="targetPoint" />
          </mxGeometry>
        </mxCell>
        <mxCell id="Ao4q6FNZmFbgt5mi8pkg-73" value="" style="endArrow=none;html=1;rounded=0;shadow=0;fontFamily=Courier New;fontSize=23;fontColor=default;" parent="1" edge="1">
          <mxGeometry width="50" height="50" relative="1" as="geometry">
            <mxPoint x="45" y="686.41" as="sourcePoint" />
            <mxPoint x="49" y="692.4099999999995" as="targetPoint" />
          </mxGeometry>
        </mxCell>
        <mxCell id="Ao4q6FNZmFbgt5mi8pkg-74" value="28" style="text;html=1;strokeColor=none;fillColor=none;align=center;verticalAlign=middle;whiteSpace=wrap;rounded=0;fontFamily=Courier New;fontSize=12;fontColor=default;" parent="1" vertex="1">
          <mxGeometry x="42" y="691.91" width="14" height="11" as="geometry" />
        </mxCell>
        <mxCell id="Ao4q6FNZmFbgt5mi8pkg-75" value="in" style="text;html=1;strokeColor=none;fillColor=none;align=left;verticalAlign=middle;whiteSpace=wrap;rounded=0;fontFamily=Courier New;fontSize=12;fontColor=default;shadow=0;" parent="1" vertex="1">
          <mxGeometry x="-92.5" y="682.66" width="59" height="9.5" as="geometry" />
        </mxCell>
        <mxCell id="Ao4q6FNZmFbgt5mi8pkg-76" value="out" style="text;html=1;strokeColor=none;fillColor=none;align=right;verticalAlign=middle;whiteSpace=wrap;rounded=0;fontFamily=Courier New;fontSize=12;fontColor=default;shadow=0;" parent="1" vertex="1">
          <mxGeometry x="-32" y="683.66" width="59" height="9.5" as="geometry" />
        </mxCell>
        <mxCell id="Ao4q6FNZmFbgt5mi8pkg-81" style="rounded=0;orthogonalLoop=1;jettySize=auto;html=1;shadow=0;fontFamily=Courier New;fontSize=23;fontColor=default;startArrow=classic;startFill=1;endArrow=none;endFill=0;" parent="1" edge="1">
          <mxGeometry relative="1" as="geometry">
            <mxPoint x="673" y="965" as="targetPoint" />
            <mxPoint x="1759" y="965" as="sourcePoint" />
          </mxGeometry>
        </mxCell>
        <mxCell id="Ao4q6FNZmFbgt5mi8pkg-82" value="&lt;div&gt;&lt;b&gt;Shift&lt;/b&gt;&lt;/div&gt;&lt;div&gt;&lt;b&gt;Left 2&lt;br&gt;&lt;/b&gt;&lt;/div&gt;" style="ellipse;whiteSpace=wrap;html=1;rounded=0;fontFamily=Courier New;fontSize=23;fontColor=default;fillColor=none;gradientColor=none;" parent="1" vertex="1">
          <mxGeometry x="1765" y="887.0899999999999" width="121.5" height="160.91" as="geometry" />
        </mxCell>
        <mxCell id="Ao4q6FNZmFbgt5mi8pkg-83" style="rounded=0;orthogonalLoop=1;jettySize=auto;html=1;exitX=0;exitY=0.5;exitDx=0;exitDy=0;shadow=0;fontFamily=Courier New;fontSize=23;fontColor=default;startArrow=classic;startFill=1;endArrow=none;endFill=0;" parent="1" source="Ao4q6FNZmFbgt5mi8pkg-63" edge="1">
          <mxGeometry relative="1" as="geometry">
            <mxPoint x="1930.5000000000036" y="966.75" as="sourcePoint" />
            <mxPoint x="1886.5" y="966.2500000000005" as="targetPoint" />
          </mxGeometry>
        </mxCell>
        <mxCell id="Ao4q6FNZmFbgt5mi8pkg-84" value="" style="endArrow=none;html=1;rounded=0;shadow=0;fontFamily=Courier New;fontSize=23;fontColor=default;" parent="1" edge="1">
          <mxGeometry width="50" height="50" relative="1" as="geometry">
            <mxPoint x="1734" y="962.5" as="sourcePoint" />
            <mxPoint x="1738" y="968.4999999999995" as="targetPoint" />
          </mxGeometry>
        </mxCell>
        <mxCell id="Ao4q6FNZmFbgt5mi8pkg-85" value="32" style="text;html=1;strokeColor=none;fillColor=none;align=center;verticalAlign=middle;whiteSpace=wrap;rounded=0;fontFamily=Courier New;fontSize=12;fontColor=default;" parent="1" vertex="1">
          <mxGeometry x="1731" y="968" width="14" height="11" as="geometry" />
        </mxCell>
        <mxCell id="Ao4q6FNZmFbgt5mi8pkg-86" value="" style="endArrow=none;html=1;rounded=0;shadow=0;fontFamily=Courier New;fontSize=23;fontColor=default;" parent="1" edge="1">
          <mxGeometry width="50" height="50" relative="1" as="geometry">
            <mxPoint x="1903.5" y="964.5" as="sourcePoint" />
            <mxPoint x="1907.5" y="970.4999999999995" as="targetPoint" />
          </mxGeometry>
        </mxCell>
        <mxCell id="Ao4q6FNZmFbgt5mi8pkg-87" value="32" style="text;html=1;strokeColor=none;fillColor=none;align=center;verticalAlign=middle;whiteSpace=wrap;rounded=0;fontFamily=Courier New;fontSize=12;fontColor=default;" parent="1" vertex="1">
          <mxGeometry x="1900.5" y="970" width="14" height="11" as="geometry" />
        </mxCell>
        <mxCell id="Ao4q6FNZmFbgt5mi8pkg-88" value="in" style="text;html=1;strokeColor=none;fillColor=none;align=left;verticalAlign=middle;whiteSpace=wrap;rounded=0;fontFamily=Courier New;fontSize=12;fontColor=default;shadow=0;" parent="1" vertex="1">
          <mxGeometry x="1766" y="960.75" width="59" height="9.5" as="geometry" />
        </mxCell>
        <mxCell id="Ao4q6FNZmFbgt5mi8pkg-89" value="out" style="text;html=1;strokeColor=none;fillColor=none;align=right;verticalAlign=middle;whiteSpace=wrap;rounded=0;fontFamily=Courier New;fontSize=12;fontColor=default;shadow=0;" parent="1" vertex="1">
          <mxGeometry x="1826.5" y="961.75" width="59" height="9.5" as="geometry" />
        </mxCell>
        <mxCell id="Ao4q6FNZmFbgt5mi8pkg-92" value="" style="endArrow=none;html=1;rounded=0;startArrow=none;startFill=0;endFill=0;exitX=0.5;exitY=0.5;exitDx=0;exitDy=0;exitPerimeter=0;" parent="1" source="1kfZFv9F9Y2PhZVG0dYN-92" edge="1">
          <mxGeometry width="50" height="50" relative="1" as="geometry">
            <mxPoint x="-1124" y="1553" as="sourcePoint" />
            <mxPoint x="-1121" y="801" as="targetPoint" />
          </mxGeometry>
        </mxCell>
        <mxCell id="1kfZFv9F9Y2PhZVG0dYN-95" style="edgeStyle=orthogonalEdgeStyle;rounded=0;orthogonalLoop=1;jettySize=auto;html=1;fontSize=15;startArrow=none;startFill=0;endArrow=none;endFill=0;" parent="1" source="Ao4q6FNZmFbgt5mi8pkg-127" edge="1">
          <mxGeometry relative="1" as="geometry">
            <mxPoint x="129" y="1606" as="targetPoint" />
          </mxGeometry>
        </mxCell>
        <mxCell id="Ao4q6FNZmFbgt5mi8pkg-127" value="&lt;b&gt;MUX&lt;/b&gt;" style="shape=trapezoid;perimeter=trapezoidPerimeter;whiteSpace=wrap;html=1;fixedSize=1;rotation=90;shadow=0;horizontal=0;" parent="1" vertex="1">
          <mxGeometry x="145" y="1575.75" width="120" height="60" as="geometry" />
        </mxCell>
        <mxCell id="Ao4q6FNZmFbgt5mi8pkg-128" style="edgeStyle=orthogonalEdgeStyle;rounded=0;orthogonalLoop=1;jettySize=auto;html=1;endArrow=none;endFill=0;startArrow=classic;startFill=1;exitX=0.75;exitY=1;exitDx=0;exitDy=0;shadow=0;" parent="1" source="Ao4q6FNZmFbgt5mi8pkg-127" edge="1">
          <mxGeometry relative="1" as="geometry">
            <mxPoint x="176" y="1635.75" as="sourcePoint" />
            <mxPoint x="-128" y="1636" as="targetPoint" />
          </mxGeometry>
        </mxCell>
        <mxCell id="Ao4q6FNZmFbgt5mi8pkg-132" style="edgeStyle=orthogonalEdgeStyle;rounded=0;orthogonalLoop=1;jettySize=auto;html=1;endArrow=none;endFill=0;startArrow=classic;startFill=1;shadow=0;strokeColor=#FF3333;" parent="1" source="Ao4q6FNZmFbgt5mi8pkg-127" edge="1">
          <mxGeometry relative="1" as="geometry">
            <mxPoint x="240" y="1534.7499999999986" as="sourcePoint" />
            <mxPoint x="205" y="1332" as="targetPoint" />
          </mxGeometry>
        </mxCell>
        <mxCell id="Ao4q6FNZmFbgt5mi8pkg-134" value="&lt;p style=&quot;font-size: 18px;&quot;&gt;&lt;font face=&quot;Courier New&quot;&gt;rd&lt;/font&gt;&lt;br&gt;&lt;/p&gt;" style="text;html=1;strokeColor=none;fillColor=none;align=right;verticalAlign=middle;whiteSpace=wrap;rounded=0;fontFamily=Helvetica;fontSize=18;fontColor=default;shadow=0;" parent="1" vertex="1">
          <mxGeometry x="107.5" y="1635.75" width="22" height="11.75" as="geometry" />
        </mxCell>
        <mxCell id="Ao4q6FNZmFbgt5mi8pkg-135" style="edgeStyle=orthogonalEdgeStyle;rounded=0;orthogonalLoop=1;jettySize=auto;html=1;endArrow=none;endFill=0;startArrow=classic;startFill=1;exitX=0.75;exitY=1;exitDx=0;exitDy=0;shadow=0;" parent="1" edge="1">
          <mxGeometry relative="1" as="geometry">
            <mxPoint x="175" y="1575.75" as="sourcePoint" />
            <mxPoint x="147" y="1575" as="targetPoint" />
          </mxGeometry>
        </mxCell>
        <mxCell id="Ao4q6FNZmFbgt5mi8pkg-136" value="&lt;font style=&quot;font-size: 18px;&quot; face=&quot;Courier New&quot;&gt;rt&lt;/font&gt;" style="text;html=1;strokeColor=none;fillColor=none;align=right;verticalAlign=middle;whiteSpace=wrap;rounded=0;shadow=0;" parent="1" vertex="1">
          <mxGeometry x="121" y="1561.5" width="21" height="15.5" as="geometry" />
        </mxCell>
        <mxCell id="Ao4q6FNZmFbgt5mi8pkg-157" value="&lt;b&gt;MUX&lt;/b&gt;" style="shape=trapezoid;perimeter=trapezoidPerimeter;whiteSpace=wrap;html=1;fixedSize=1;rotation=90;shadow=0;horizontal=0;" parent="1" vertex="1">
          <mxGeometry x="836" y="1524" width="120" height="60" as="geometry" />
        </mxCell>
        <mxCell id="Ao4q6FNZmFbgt5mi8pkg-160" value="&lt;font style=&quot;font-size: 18px;&quot;&gt;0&lt;/font&gt;" style="text;html=1;strokeColor=none;fillColor=none;align=center;verticalAlign=middle;whiteSpace=wrap;rounded=0;shadow=0;" parent="1" vertex="1">
          <mxGeometry x="875" y="1517" width="26" height="13" as="geometry" />
        </mxCell>
        <mxCell id="Ao4q6FNZmFbgt5mi8pkg-161" value="&lt;font style=&quot;font-size: 18px;&quot;&gt;1&lt;/font&gt;" style="text;html=1;strokeColor=none;fillColor=none;align=center;verticalAlign=middle;whiteSpace=wrap;rounded=0;shadow=0;" parent="1" vertex="1">
          <mxGeometry x="875" y="1577" width="26" height="13" as="geometry" />
        </mxCell>
        <mxCell id="Ao4q6FNZmFbgt5mi8pkg-162" style="edgeStyle=orthogonalEdgeStyle;rounded=0;orthogonalLoop=1;jettySize=auto;html=1;endArrow=none;endFill=0;startArrow=classic;startFill=1;shadow=0;strokeColor=#FF3333;" parent="1" source="Ao4q6FNZmFbgt5mi8pkg-157" edge="1">
          <mxGeometry relative="1" as="geometry">
            <mxPoint x="931" y="1482.9999999999986" as="sourcePoint" />
            <mxPoint x="895" y="1318" as="targetPoint" />
            <Array as="points">
              <mxPoint x="896" y="1406" />
              <mxPoint x="897" y="1406" />
              <mxPoint x="897" y="1318" />
            </Array>
          </mxGeometry>
        </mxCell>
        <mxCell id="Ao4q6FNZmFbgt5mi8pkg-170" value="&lt;b&gt;MUX&lt;/b&gt;" style="shape=trapezoid;perimeter=trapezoidPerimeter;whiteSpace=wrap;html=1;fixedSize=1;rotation=90;shadow=0;horizontal=0;" parent="1" vertex="1">
          <mxGeometry x="2813" y="1495.5" width="120" height="60" as="geometry" />
        </mxCell>
        <mxCell id="Ao4q6FNZmFbgt5mi8pkg-172" style="edgeStyle=orthogonalEdgeStyle;rounded=0;orthogonalLoop=1;jettySize=auto;html=1;endArrow=none;endFill=0;startArrow=none;startFill=0;shadow=0;" parent="1" edge="1">
          <mxGeometry relative="1" as="geometry">
            <mxPoint x="2926" y="1525" as="sourcePoint" />
            <mxPoint x="2903" y="1525.2600000000002" as="targetPoint" />
            <Array as="points">
              <mxPoint x="2903" y="1525.5" />
            </Array>
          </mxGeometry>
        </mxCell>
        <mxCell id="Ao4q6FNZmFbgt5mi8pkg-175" style="edgeStyle=orthogonalEdgeStyle;rounded=0;orthogonalLoop=1;jettySize=auto;html=1;endArrow=none;endFill=0;startArrow=classic;startFill=1;shadow=0;strokeColor=#FF3333;" parent="1" source="Ao4q6FNZmFbgt5mi8pkg-170" edge="1">
          <mxGeometry relative="1" as="geometry">
            <mxPoint x="2908" y="1454.4999999999986" as="sourcePoint" />
            <mxPoint x="2873" y="1280" as="targetPoint" />
            <Array as="points">
              <mxPoint x="2873" y="1444" />
            </Array>
          </mxGeometry>
        </mxCell>
        <mxCell id="Ao4q6FNZmFbgt5mi8pkg-178" value="" style="endArrow=none;html=1;rounded=0;fontSize=15;" parent="1" edge="1">
          <mxGeometry width="50" height="50" relative="1" as="geometry">
            <mxPoint x="1967" y="1762" as="sourcePoint" />
            <mxPoint x="2566" y="1762" as="targetPoint" />
          </mxGeometry>
        </mxCell>
        <mxCell id="Ao4q6FNZmFbgt5mi8pkg-179" value="" style="endArrow=none;html=1;rounded=0;fontSize=15;" parent="1" edge="1">
          <mxGeometry width="50" height="50" relative="1" as="geometry">
            <mxPoint x="2566" y="1762" as="sourcePoint" />
            <mxPoint x="2566" y="1556" as="targetPoint" />
          </mxGeometry>
        </mxCell>
        <mxCell id="Ao4q6FNZmFbgt5mi8pkg-180" value="" style="ellipse;whiteSpace=wrap;html=1;aspect=fixed;fontSize=15;fillColor=#000000;" parent="1" vertex="1">
          <mxGeometry x="1962" y="1600" width="10" height="10" as="geometry" />
        </mxCell>
        <mxCell id="Ao4q6FNZmFbgt5mi8pkg-184" value="" style="endArrow=none;html=1;rounded=0;fontSize=15;" parent="1" edge="1">
          <mxGeometry width="50" height="50" relative="1" as="geometry">
            <mxPoint x="255" y="2150" as="sourcePoint" />
            <mxPoint x="2921" y="2155" as="targetPoint" />
          </mxGeometry>
        </mxCell>
        <mxCell id="Ao4q6FNZmFbgt5mi8pkg-185" value="" style="endArrow=none;html=1;rounded=0;fontSize=15;" parent="1" edge="1">
          <mxGeometry width="50" height="50" relative="1" as="geometry">
            <mxPoint x="255" y="2151" as="sourcePoint" />
            <mxPoint x="255" y="1637" as="targetPoint" />
          </mxGeometry>
        </mxCell>
        <mxCell id="Ao4q6FNZmFbgt5mi8pkg-186" value="" style="endArrow=none;html=1;rounded=0;fontSize=15;" parent="1" edge="1">
          <mxGeometry width="50" height="50" relative="1" as="geometry">
            <mxPoint x="2926" y="2154" as="sourcePoint" />
            <mxPoint x="2926" y="1525" as="targetPoint" />
          </mxGeometry>
        </mxCell>
        <mxCell id="1kfZFv9F9Y2PhZVG0dYN-9" value="" style="endArrow=classic;html=1;rounded=0;entryX=0.75;entryY=1;entryDx=0;entryDy=0;exitX=1;exitY=0.5;exitDx=0;exitDy=0;" parent="1" source="1kfZFv9F9Y2PhZVG0dYN-47" target="Ao4q6FNZmFbgt5mi8pkg-157" edge="1">
          <mxGeometry width="50" height="50" relative="1" as="geometry">
            <mxPoint x="743" y="1584" as="sourcePoint" />
            <mxPoint x="757" y="1615.5" as="targetPoint" />
          </mxGeometry>
        </mxCell>
        <mxCell id="1kfZFv9F9Y2PhZVG0dYN-10" value="Shamt" style="text;html=1;strokeColor=none;fillColor=none;align=center;verticalAlign=middle;whiteSpace=wrap;rounded=0;fontFamily=Courier New;" parent="1" vertex="1">
          <mxGeometry x="1312" y="1666" width="37" height="11" as="geometry" />
        </mxCell>
        <mxCell id="1kfZFv9F9Y2PhZVG0dYN-16" value="ShiftType" style="text;html=1;strokeColor=none;fillColor=none;align=center;verticalAlign=middle;whiteSpace=wrap;rounded=0;fontFamily=Courier New;" parent="1" vertex="1">
          <mxGeometry x="1312" y="1683" width="63" height="14" as="geometry" />
        </mxCell>
        <mxCell id="1kfZFv9F9Y2PhZVG0dYN-18" value="5" style="text;html=1;strokeColor=none;fillColor=none;align=center;verticalAlign=middle;whiteSpace=wrap;rounded=0;" parent="1" vertex="1">
          <mxGeometry x="1277" y="1673.25" width="14" height="13.75" as="geometry" />
        </mxCell>
        <mxCell id="1kfZFv9F9Y2PhZVG0dYN-22" value="" style="endArrow=classic;html=1;rounded=0;entryX=0;entryY=0.5;entryDx=0;entryDy=0;exitX=0.5;exitY=0;exitDx=0;exitDy=0;" parent="1" source="Ao4q6FNZmFbgt5mi8pkg-157" target="Ao4q6FNZmFbgt5mi8pkg-48" edge="1">
          <mxGeometry width="50" height="50" relative="1" as="geometry">
            <mxPoint x="710" y="1608" as="sourcePoint" />
            <mxPoint x="760" y="1558" as="targetPoint" />
          </mxGeometry>
        </mxCell>
        <mxCell id="1kfZFv9F9Y2PhZVG0dYN-23" value="" style="endArrow=classic;html=1;rounded=0;entryX=0;entryY=0.5;entryDx=0;entryDy=0;exitX=1;exitY=0.5;exitDx=0;exitDy=0;startArrow=none;" parent="1" source="PoOB7_w7BP0IgoYagRVa-25" target="Ao4q6FNZmFbgt5mi8pkg-47" edge="1">
          <mxGeometry width="50" height="50" relative="1" as="geometry">
            <mxPoint x="678" y="1476" as="sourcePoint" />
            <mxPoint x="760" y="1558" as="targetPoint" />
          </mxGeometry>
        </mxCell>
        <mxCell id="1kfZFv9F9Y2PhZVG0dYN-24" value="" style="endArrow=classic;html=1;rounded=0;entryX=0.25;entryY=1;entryDx=0;entryDy=0;exitX=1.011;exitY=0.347;exitDx=0;exitDy=0;exitPerimeter=0;" parent="1" source="7AcrwSVY3at2XOGS3Gc--90" target="Ao4q6FNZmFbgt5mi8pkg-157" edge="1">
          <mxGeometry width="50" height="50" relative="1" as="geometry">
            <mxPoint x="710" y="1608" as="sourcePoint" />
            <mxPoint x="760" y="1558" as="targetPoint" />
          </mxGeometry>
        </mxCell>
        <mxCell id="1kfZFv9F9Y2PhZVG0dYN-31" value="" style="endArrow=none;html=1;rounded=0;" parent="1" edge="1">
          <mxGeometry width="50" height="50" relative="1" as="geometry">
            <mxPoint x="1853" y="1786" as="sourcePoint" />
            <mxPoint x="1853" y="1680" as="targetPoint" />
          </mxGeometry>
        </mxCell>
        <mxCell id="1kfZFv9F9Y2PhZVG0dYN-35" value="" style="ellipse;whiteSpace=wrap;html=1;aspect=fixed;fontSize=15;fillColor=#000000;" parent="1" vertex="1">
          <mxGeometry x="651" y="1519.5" width="10" height="10" as="geometry" />
        </mxCell>
        <mxCell id="1kfZFv9F9Y2PhZVG0dYN-37" value="" style="endArrow=none;html=1;rounded=0;" parent="1" target="1kfZFv9F9Y2PhZVG0dYN-35" edge="1">
          <mxGeometry width="50" height="50" relative="1" as="geometry">
            <mxPoint x="656" y="1784" as="sourcePoint" />
            <mxPoint x="678" y="1526" as="targetPoint" />
          </mxGeometry>
        </mxCell>
        <mxCell id="1kfZFv9F9Y2PhZVG0dYN-46" value="" style="endArrow=none;html=1;rounded=0;startArrow=none;" parent="1" source="1kfZFv9F9Y2PhZVG0dYN-47" edge="1">
          <mxGeometry width="50" height="50" relative="1" as="geometry">
            <mxPoint x="673" y="2110" as="sourcePoint" />
            <mxPoint x="673" y="965" as="targetPoint" />
          </mxGeometry>
        </mxCell>
        <mxCell id="1kfZFv9F9Y2PhZVG0dYN-47" value="" style="ellipse;whiteSpace=wrap;html=1;aspect=fixed;fontSize=15;fillColor=#000000;" parent="1" vertex="1">
          <mxGeometry x="671" y="1579.5" width="10" height="10" as="geometry" />
        </mxCell>
        <mxCell id="1kfZFv9F9Y2PhZVG0dYN-48" value="" style="endArrow=none;html=1;rounded=0;" parent="1" target="1kfZFv9F9Y2PhZVG0dYN-47" edge="1">
          <mxGeometry width="50" height="50" relative="1" as="geometry">
            <mxPoint x="674" y="1940" as="sourcePoint" />
            <mxPoint x="673" y="965" as="targetPoint" />
          </mxGeometry>
        </mxCell>
        <mxCell id="1kfZFv9F9Y2PhZVG0dYN-50" value="" style="ellipse;whiteSpace=wrap;html=1;aspect=fixed;fontSize=15;fillColor=#000000;" parent="1" vertex="1">
          <mxGeometry x="1071.75" y="832.05" width="10" height="10" as="geometry" />
        </mxCell>
        <mxCell id="1kfZFv9F9Y2PhZVG0dYN-51" value="" style="edgeStyle=orthogonalEdgeStyle;rounded=0;orthogonalLoop=1;jettySize=auto;html=1;endArrow=none;endFill=0;startArrow=classic;startFill=1;shadow=0;" parent="1" target="1kfZFv9F9Y2PhZVG0dYN-50" edge="1">
          <mxGeometry relative="1" as="geometry">
            <mxPoint x="2043" y="837" as="sourcePoint" />
            <mxPoint x="-969" y="837" as="targetPoint" />
            <Array as="points" />
          </mxGeometry>
        </mxCell>
        <mxCell id="1kfZFv9F9Y2PhZVG0dYN-54" value="" style="endArrow=none;html=1;rounded=0;" parent="1" edge="1">
          <mxGeometry width="50" height="50" relative="1" as="geometry">
            <mxPoint x="1076" y="725" as="sourcePoint" />
            <mxPoint x="2235" y="728" as="targetPoint" />
          </mxGeometry>
        </mxCell>
        <mxCell id="1kfZFv9F9Y2PhZVG0dYN-57" value="&lt;b&gt;MUX&lt;/b&gt;" style="shape=trapezoid;perimeter=trapezoidPerimeter;whiteSpace=wrap;html=1;fixedSize=1;rotation=90;shadow=0;horizontal=0;" parent="1" vertex="1">
          <mxGeometry x="2329" y="874.16" width="120" height="60" as="geometry" />
        </mxCell>
        <mxCell id="1kfZFv9F9Y2PhZVG0dYN-59" style="edgeStyle=orthogonalEdgeStyle;rounded=0;orthogonalLoop=1;jettySize=auto;html=1;endArrow=none;endFill=0;startArrow=classic;startFill=1;shadow=0;" parent="1" edge="1">
          <mxGeometry relative="1" as="geometry">
            <mxPoint x="2560" y="904" as="sourcePoint" />
            <mxPoint x="2419" y="903.9200000000004" as="targetPoint" />
            <Array as="points">
              <mxPoint x="2419" y="904.16" />
            </Array>
          </mxGeometry>
        </mxCell>
        <mxCell id="1kfZFv9F9Y2PhZVG0dYN-60" value="&lt;font style=&quot;font-size: 18px;&quot;&gt;0&lt;/font&gt;" style="text;html=1;strokeColor=none;fillColor=none;align=center;verticalAlign=middle;whiteSpace=wrap;rounded=0;shadow=0;" parent="1" vertex="1">
          <mxGeometry x="2368" y="867.16" width="26" height="13" as="geometry" />
        </mxCell>
        <mxCell id="1kfZFv9F9Y2PhZVG0dYN-61" value="&lt;font style=&quot;font-size: 18px;&quot;&gt;1&lt;/font&gt;" style="text;html=1;strokeColor=none;fillColor=none;align=center;verticalAlign=middle;whiteSpace=wrap;rounded=0;shadow=0;" parent="1" vertex="1">
          <mxGeometry x="2368" y="927.16" width="26" height="13" as="geometry" />
        </mxCell>
        <mxCell id="1kfZFv9F9Y2PhZVG0dYN-63" style="edgeStyle=orthogonalEdgeStyle;rounded=0;orthogonalLoop=1;jettySize=auto;html=1;endArrow=none;endFill=0;startArrow=classic;startFill=1;exitX=0.75;exitY=1;exitDx=0;exitDy=0;shadow=0;" parent="1" edge="1">
          <mxGeometry relative="1" as="geometry">
            <mxPoint x="2359" y="874.16" as="sourcePoint" />
            <mxPoint x="2235" y="728" as="targetPoint" />
            <Array as="points">
              <mxPoint x="2311" y="874.16" />
            </Array>
          </mxGeometry>
        </mxCell>
        <mxCell id="1kfZFv9F9Y2PhZVG0dYN-65" value="" style="verticalLabelPosition=bottom;shadow=0;dashed=0;align=center;html=1;verticalAlign=top;shape=mxgraph.electrical.logic_gates.logic_gate;operation=xor;fillColor=#FFFFFF;" parent="1" vertex="1">
          <mxGeometry x="2051" y="1089" width="100" height="60" as="geometry" />
        </mxCell>
        <mxCell id="1kfZFv9F9Y2PhZVG0dYN-74" style="edgeStyle=orthogonalEdgeStyle;rounded=0;orthogonalLoop=1;jettySize=auto;html=1;exitX=1;exitY=0.5;exitDx=0;exitDy=0;exitPerimeter=0;entryX=1;entryY=0.5;entryDx=0;entryDy=0;startArrow=none;startFill=0;endArrow=classic;endFill=1;" parent="1" source="1kfZFv9F9Y2PhZVG0dYN-66" target="1kfZFv9F9Y2PhZVG0dYN-57" edge="1">
          <mxGeometry relative="1" as="geometry" />
        </mxCell>
        <mxCell id="1kfZFv9F9Y2PhZVG0dYN-66" value="" style="shape=or;whiteSpace=wrap;html=1;fillColor=#FFFFFF;" parent="1" vertex="1">
          <mxGeometry x="2194" y="1100.75" width="60" height="80" as="geometry" />
        </mxCell>
        <mxCell id="1kfZFv9F9Y2PhZVG0dYN-67" value="ALUZero" style="text;html=1;strokeColor=none;fillColor=none;align=right;verticalAlign=middle;whiteSpace=wrap;rounded=0;fontFamily=Courier New;fontSize=18;fontColor=default;shadow=0;" parent="1" vertex="1">
          <mxGeometry x="1382" y="1494" width="81" height="30" as="geometry" />
        </mxCell>
        <mxCell id="1kfZFv9F9Y2PhZVG0dYN-68" value="" style="endArrow=none;html=1;rounded=0;exitX=0.5;exitY=0;exitDx=0;exitDy=0;endFill=0;" parent="1" edge="1">
          <mxGeometry width="50" height="50" relative="1" as="geometry">
            <mxPoint x="1463" y="1513.5" as="sourcePoint" />
            <mxPoint x="1726" y="1515" as="targetPoint" />
          </mxGeometry>
        </mxCell>
        <mxCell id="1kfZFv9F9Y2PhZVG0dYN-71" value="" style="endArrow=none;html=1;rounded=0;exitX=1;exitY=0.5;exitDx=0;exitDy=0;exitPerimeter=0;" parent="1" source="1kfZFv9F9Y2PhZVG0dYN-65" edge="1">
          <mxGeometry width="50" height="50" relative="1" as="geometry">
            <mxPoint x="2133" y="1183" as="sourcePoint" />
            <mxPoint x="2194" y="1119" as="targetPoint" />
          </mxGeometry>
        </mxCell>
        <mxCell id="1kfZFv9F9Y2PhZVG0dYN-83" style="edgeStyle=orthogonalEdgeStyle;rounded=0;orthogonalLoop=1;jettySize=auto;html=1;exitX=1;exitY=0.5;exitDx=0;exitDy=0;fontSize=15;startArrow=none;startFill=0;endArrow=classic;endFill=1;" parent="1" source="1kfZFv9F9Y2PhZVG0dYN-75" edge="1">
          <mxGeometry relative="1" as="geometry">
            <mxPoint x="2591" y="915" as="targetPoint" />
          </mxGeometry>
        </mxCell>
        <mxCell id="1kfZFv9F9Y2PhZVG0dYN-75" value="&lt;b&gt;MUX&lt;/b&gt;" style="shape=trapezoid;perimeter=trapezoidPerimeter;whiteSpace=wrap;html=1;fixedSize=1;rotation=90;shadow=0;horizontal=0;" parent="1" vertex="1">
          <mxGeometry x="2531" y="844.16" width="120" height="60" as="geometry" />
        </mxCell>
        <mxCell id="1kfZFv9F9Y2PhZVG0dYN-77" style="edgeStyle=orthogonalEdgeStyle;rounded=0;orthogonalLoop=1;jettySize=auto;html=1;endArrow=none;endFill=0;startArrow=none;startFill=0;exitX=0.25;exitY=1;exitDx=0;exitDy=0;shadow=0;" parent="1" source="PoOB7_w7BP0IgoYagRVa-8" edge="1">
          <mxGeometry relative="1" as="geometry">
            <mxPoint x="2672.0000000000005" y="874.16" as="sourcePoint" />
            <mxPoint x="2621" y="873.9200000000002" as="targetPoint" />
            <Array as="points" />
          </mxGeometry>
        </mxCell>
        <mxCell id="1kfZFv9F9Y2PhZVG0dYN-78" value="&lt;font style=&quot;font-size: 15px;&quot;&gt;1&lt;/font&gt;" style="text;html=1;strokeColor=none;fillColor=none;align=center;verticalAlign=middle;whiteSpace=wrap;rounded=0;shadow=0;" parent="1" vertex="1">
          <mxGeometry x="2570" y="837.16" width="26" height="13" as="geometry" />
        </mxCell>
        <mxCell id="1kfZFv9F9Y2PhZVG0dYN-79" value="&lt;font style=&quot;font-size: 15px;&quot;&gt;0&lt;/font&gt;" style="text;html=1;strokeColor=none;fillColor=none;align=center;verticalAlign=middle;whiteSpace=wrap;rounded=0;shadow=0;" parent="1" vertex="1">
          <mxGeometry x="2570" y="897.16" width="26" height="13" as="geometry" />
        </mxCell>
        <mxCell id="1kfZFv9F9Y2PhZVG0dYN-81" style="edgeStyle=orthogonalEdgeStyle;rounded=0;orthogonalLoop=1;jettySize=auto;html=1;endArrow=none;endFill=0;startArrow=classic;startFill=1;exitX=0.75;exitY=1;exitDx=0;exitDy=0;shadow=0;" parent="1" edge="1">
          <mxGeometry relative="1" as="geometry">
            <mxPoint x="2561" y="844.16" as="sourcePoint" />
            <mxPoint x="2513" y="688" as="targetPoint" />
            <Array as="points">
              <mxPoint x="2513" y="844.16" />
            </Array>
          </mxGeometry>
        </mxCell>
        <mxCell id="1kfZFv9F9Y2PhZVG0dYN-85" value="" style="endArrow=classic;html=1;rounded=0;fontSize=15;strokeColor=#FF3333;" parent="1" edge="1">
          <mxGeometry width="50" height="50" relative="1" as="geometry">
            <mxPoint x="2600" y="1193" as="sourcePoint" />
            <mxPoint x="2600" y="921.55" as="targetPoint" />
          </mxGeometry>
        </mxCell>
        <mxCell id="1kfZFv9F9Y2PhZVG0dYN-87" value="" style="endArrow=none;html=1;rounded=0;fontSize=15;" parent="1" edge="1">
          <mxGeometry width="50" height="50" relative="1" as="geometry">
            <mxPoint x="2851" y="874.16" as="sourcePoint" />
            <mxPoint x="2847" y="559" as="targetPoint" />
          </mxGeometry>
        </mxCell>
        <mxCell id="1kfZFv9F9Y2PhZVG0dYN-88" value="" style="endArrow=none;html=1;rounded=0;fontSize=15;" parent="1" edge="1">
          <mxGeometry width="50" height="50" relative="1" as="geometry">
            <mxPoint x="-1267" y="558" as="sourcePoint" />
            <mxPoint x="2845" y="558" as="targetPoint" />
          </mxGeometry>
        </mxCell>
        <mxCell id="1kfZFv9F9Y2PhZVG0dYN-89" value="" style="endArrow=none;html=1;rounded=0;fontSize=15;" parent="1" edge="1">
          <mxGeometry width="50" height="50" relative="1" as="geometry">
            <mxPoint x="-1266" y="1490" as="sourcePoint" />
            <mxPoint x="-1266" y="559" as="targetPoint" />
          </mxGeometry>
        </mxCell>
        <mxCell id="1kfZFv9F9Y2PhZVG0dYN-92" value="" style="ellipse;whiteSpace=wrap;html=1;aspect=fixed;fontSize=15;fillColor=#000000;" parent="1" vertex="1">
          <mxGeometry x="-1127" y="1487" width="6" height="6" as="geometry" />
        </mxCell>
        <mxCell id="1kfZFv9F9Y2PhZVG0dYN-93" value="" style="edgeStyle=orthogonalEdgeStyle;rounded=0;orthogonalLoop=1;jettySize=auto;html=1;endArrow=none;" parent="1" source="7AcrwSVY3at2XOGS3Gc--169" target="1kfZFv9F9Y2PhZVG0dYN-92" edge="1">
          <mxGeometry relative="1" as="geometry">
            <mxPoint x="-1036" y="1490.0000000000005" as="targetPoint" />
            <mxPoint x="-1150.1" y="1490.0000000000005" as="sourcePoint" />
          </mxGeometry>
        </mxCell>
        <mxCell id="1kfZFv9F9Y2PhZVG0dYN-96" value="31" style="text;html=1;strokeColor=none;fillColor=none;align=right;verticalAlign=middle;whiteSpace=wrap;rounded=0;fontFamily=Courier New;fontSize=18;fontColor=default;shadow=0;" parent="1" vertex="1">
          <mxGeometry x="107.5" y="1597.25" width="22" height="15.5" as="geometry" />
        </mxCell>
        <mxCell id="1kfZFv9F9Y2PhZVG0dYN-97" value="" style="endArrow=none;html=1;rounded=0;fontSize=15;exitX=0.5;exitY=0;exitDx=0;exitDy=0;" parent="1" source="Dzn5CRCUIPu2wGvUZ2na-177" edge="1">
          <mxGeometry width="50" height="50" relative="1" as="geometry">
            <mxPoint x="-203" y="1533" as="sourcePoint" />
            <mxPoint x="-205" y="686" as="targetPoint" />
          </mxGeometry>
        </mxCell>
        <mxCell id="1kfZFv9F9Y2PhZVG0dYN-100" value="s_Inst[5-0]" style="text;html=1;strokeColor=none;fillColor=none;align=center;verticalAlign=middle;whiteSpace=wrap;rounded=0;fontSize=15;fontFamily=Courier New;" parent="1" vertex="1">
          <mxGeometry x="-182.63" y="1239.34" width="95" height="16.16" as="geometry" />
        </mxCell>
        <mxCell id="1kfZFv9F9Y2PhZVG0dYN-101" value="" style="endArrow=none;html=1;rounded=0;fontSize=15;" parent="1" edge="1">
          <mxGeometry width="50" height="50" relative="1" as="geometry">
            <mxPoint x="142" y="837.16" as="sourcePoint" />
            <mxPoint x="142" y="688" as="targetPoint" />
          </mxGeometry>
        </mxCell>
        <mxCell id="1kfZFv9F9Y2PhZVG0dYN-102" value="" style="ellipse;whiteSpace=wrap;html=1;aspect=fixed;fontSize=15;fillColor=#000000;" parent="1" vertex="1">
          <mxGeometry x="137" y="831.16" width="10" height="10" as="geometry" />
        </mxCell>
        <mxCell id="1kfZFv9F9Y2PhZVG0dYN-103" value="" style="edgeStyle=orthogonalEdgeStyle;rounded=0;orthogonalLoop=1;jettySize=auto;html=1;endArrow=none;endFill=0;startArrow=none;startFill=1;shadow=0;exitX=0;exitY=0.5;exitDx=0;exitDy=0;" parent="1" source="1kfZFv9F9Y2PhZVG0dYN-50" target="1kfZFv9F9Y2PhZVG0dYN-102" edge="1">
          <mxGeometry relative="1" as="geometry">
            <mxPoint x="1273.7500000000005" y="837.05" as="sourcePoint" />
            <mxPoint x="-968" y="837" as="targetPoint" />
            <Array as="points" />
          </mxGeometry>
        </mxCell>
        <mxCell id="1kfZFv9F9Y2PhZVG0dYN-104" value="Jump Address[31-0]" style="text;html=1;strokeColor=none;fillColor=none;align=center;verticalAlign=middle;whiteSpace=wrap;rounded=0;fontSize=15;fontFamily=Courier New;" parent="1" vertex="1">
          <mxGeometry x="189" y="657" width="176" height="30" as="geometry" />
        </mxCell>
        <mxCell id="1kfZFv9F9Y2PhZVG0dYN-105" value="PC+4[31-28]" style="text;html=1;strokeColor=none;fillColor=none;align=center;verticalAlign=middle;whiteSpace=wrap;rounded=0;fontSize=15;fontFamily=Courier New;" parent="1" vertex="1">
          <mxGeometry x="151.25" y="739.91" width="90" height="30" as="geometry" />
        </mxCell>
        <mxCell id="1kfZFv9F9Y2PhZVG0dYN-107" value="" style="endArrow=none;html=1;rounded=0;shadow=0;fontFamily=Courier New;fontSize=23;fontColor=default;" parent="1" edge="1">
          <mxGeometry width="50" height="50" relative="1" as="geometry">
            <mxPoint x="-130.00000000000023" y="683.6599999999999" as="sourcePoint" />
            <mxPoint x="-126" y="689.6599999999994" as="targetPoint" />
          </mxGeometry>
        </mxCell>
        <mxCell id="1kfZFv9F9Y2PhZVG0dYN-108" value="26" style="text;html=1;strokeColor=none;fillColor=none;align=center;verticalAlign=middle;whiteSpace=wrap;rounded=0;fontFamily=Courier New;fontSize=12;fontColor=default;" parent="1" vertex="1">
          <mxGeometry x="-133" y="689.16" width="14" height="11" as="geometry" />
        </mxCell>
        <mxCell id="PoOB7_w7BP0IgoYagRVa-1" value="" style="endArrow=none;html=1;rounded=0;endFill=0;" parent="1" edge="1">
          <mxGeometry width="50" height="50" relative="1" as="geometry">
            <mxPoint x="1727" y="1515" as="sourcePoint" />
            <mxPoint x="1727" y="1134" as="targetPoint" />
          </mxGeometry>
        </mxCell>
        <mxCell id="PoOB7_w7BP0IgoYagRVa-2" value="" style="endArrow=none;html=1;rounded=0;entryX=0;entryY=0.75;entryDx=0;entryDy=0;endFill=0;entryPerimeter=0;" parent="1" target="1kfZFv9F9Y2PhZVG0dYN-65" edge="1">
          <mxGeometry width="50" height="50" relative="1" as="geometry">
            <mxPoint x="1727" y="1134" as="sourcePoint" />
            <mxPoint x="1992" y="1133" as="targetPoint" />
          </mxGeometry>
        </mxCell>
        <mxCell id="PoOB7_w7BP0IgoYagRVa-3" value="" style="endArrow=none;html=1;rounded=0;" parent="1" edge="1">
          <mxGeometry width="50" height="50" relative="1" as="geometry">
            <mxPoint x="656" y="1784" as="sourcePoint" />
            <mxPoint x="1853" y="1786" as="targetPoint" />
          </mxGeometry>
        </mxCell>
        <mxCell id="PoOB7_w7BP0IgoYagRVa-4" value="" style="endArrow=none;html=1;rounded=0;" parent="1" edge="1">
          <mxGeometry width="50" height="50" relative="1" as="geometry">
            <mxPoint x="1966.83" y="1610" as="sourcePoint" />
            <mxPoint x="1967" y="1373" as="targetPoint" />
          </mxGeometry>
        </mxCell>
        <mxCell id="PoOB7_w7BP0IgoYagRVa-6" value="OverFlow" style="text;html=1;strokeColor=none;fillColor=none;align=right;verticalAlign=middle;whiteSpace=wrap;rounded=0;fontFamily=Courier New;fontSize=18;fontColor=default;shadow=0;" parent="1" vertex="1">
          <mxGeometry x="1382" y="1522" width="81" height="30" as="geometry" />
        </mxCell>
        <mxCell id="PoOB7_w7BP0IgoYagRVa-7" value="" style="endArrow=none;html=1;rounded=0;exitX=0.5;exitY=0;exitDx=0;exitDy=0;endFill=0;" parent="1" edge="1">
          <mxGeometry width="50" height="50" relative="1" as="geometry">
            <mxPoint x="1463" y="1539" as="sourcePoint" />
            <mxPoint x="1749" y="1539" as="targetPoint" />
          </mxGeometry>
        </mxCell>
        <mxCell id="PoOB7_w7BP0IgoYagRVa-13" style="edgeStyle=orthogonalEdgeStyle;rounded=0;orthogonalLoop=1;jettySize=auto;html=1;exitX=0.5;exitY=0;exitDx=0;exitDy=0;startArrow=none;startFill=0;endArrow=none;endFill=0;" parent="1" source="PoOB7_w7BP0IgoYagRVa-8" edge="1">
          <mxGeometry relative="1" as="geometry">
            <mxPoint x="2851" y="904" as="targetPoint" />
          </mxGeometry>
        </mxCell>
        <mxCell id="PoOB7_w7BP0IgoYagRVa-8" value="&lt;b&gt;MUX&lt;/b&gt;" style="shape=trapezoid;perimeter=trapezoidPerimeter;whiteSpace=wrap;html=1;fixedSize=1;rotation=90;shadow=0;horizontal=0;" parent="1" vertex="1">
          <mxGeometry x="2702" y="874.16" width="120" height="60" as="geometry" />
        </mxCell>
        <mxCell id="PoOB7_w7BP0IgoYagRVa-9" value="&lt;font style=&quot;font-size: 18px;&quot;&gt;0&lt;/font&gt;" style="text;html=1;strokeColor=none;fillColor=none;align=center;verticalAlign=middle;whiteSpace=wrap;rounded=0;shadow=0;" parent="1" vertex="1">
          <mxGeometry x="2741" y="867.16" width="26" height="13" as="geometry" />
        </mxCell>
        <mxCell id="PoOB7_w7BP0IgoYagRVa-10" value="&lt;font style=&quot;font-size: 18px;&quot;&gt;1&lt;/font&gt;" style="text;html=1;strokeColor=none;fillColor=none;align=center;verticalAlign=middle;whiteSpace=wrap;rounded=0;shadow=0;" parent="1" vertex="1">
          <mxGeometry x="2741" y="927.16" width="26" height="13" as="geometry" />
        </mxCell>
        <mxCell id="PoOB7_w7BP0IgoYagRVa-11" value="" style="endArrow=none;html=1;rounded=0;fontSize=15;" parent="1" edge="1">
          <mxGeometry width="50" height="50" relative="1" as="geometry">
            <mxPoint x="2851" y="904" as="sourcePoint" />
            <mxPoint x="2847" y="558" as="targetPoint" />
          </mxGeometry>
        </mxCell>
        <mxCell id="PoOB7_w7BP0IgoYagRVa-14" value="" style="endArrow=classic;html=1;rounded=0;fontSize=15;strokeColor=#FF3333;" parent="1" edge="1">
          <mxGeometry width="50" height="50" relative="1" as="geometry">
            <mxPoint x="2768" y="1239" as="sourcePoint" />
            <mxPoint x="2768" y="951.55" as="targetPoint" />
          </mxGeometry>
        </mxCell>
        <mxCell id="PoOB7_w7BP0IgoYagRVa-18" value="" style="endArrow=none;html=1;rounded=0;" parent="1" edge="1">
          <mxGeometry width="50" height="50" relative="1" as="geometry">
            <mxPoint x="722" y="1478.25" as="sourcePoint" />
            <mxPoint x="722" y="1210" as="targetPoint" />
          </mxGeometry>
        </mxCell>
        <mxCell id="PoOB7_w7BP0IgoYagRVa-19" style="rounded=0;orthogonalLoop=1;jettySize=auto;html=1;shadow=0;fontFamily=Courier New;fontSize=23;fontColor=default;startArrow=none;startFill=0;endArrow=none;endFill=0;" parent="1" edge="1">
          <mxGeometry relative="1" as="geometry">
            <mxPoint x="722" y="1210" as="targetPoint" />
            <mxPoint x="2680" y="1210" as="sourcePoint" />
          </mxGeometry>
        </mxCell>
        <mxCell id="PoOB7_w7BP0IgoYagRVa-23" value="" style="endArrow=classic;html=1;rounded=0;fontSize=15;" parent="1" edge="1">
          <mxGeometry width="50" height="50" relative="1" as="geometry">
            <mxPoint x="2681" y="934" as="sourcePoint" />
            <mxPoint x="2731" y="934.16" as="targetPoint" />
          </mxGeometry>
        </mxCell>
        <mxCell id="PoOB7_w7BP0IgoYagRVa-24" style="rounded=0;orthogonalLoop=1;jettySize=auto;html=1;shadow=0;fontFamily=Courier New;fontSize=23;fontColor=default;startArrow=none;startFill=0;endArrow=none;endFill=0;" parent="1" edge="1">
          <mxGeometry relative="1" as="geometry">
            <mxPoint x="2680" y="1209" as="targetPoint" />
            <mxPoint x="2680" y="934" as="sourcePoint" />
          </mxGeometry>
        </mxCell>
        <mxCell id="PoOB7_w7BP0IgoYagRVa-25" value="" style="ellipse;whiteSpace=wrap;html=1;aspect=fixed;fontSize=15;fillColor=#000000;" parent="1" vertex="1">
          <mxGeometry x="717" y="1476" width="10" height="10" as="geometry" />
        </mxCell>
        <mxCell id="PoOB7_w7BP0IgoYagRVa-26" value="" style="endArrow=none;html=1;rounded=0;entryX=0;entryY=0.5;entryDx=0;entryDy=0;exitX=0.996;exitY=0.203;exitDx=0;exitDy=0;exitPerimeter=0;" parent="1" source="7AcrwSVY3at2XOGS3Gc--90" target="PoOB7_w7BP0IgoYagRVa-25" edge="1">
          <mxGeometry width="50" height="50" relative="1" as="geometry">
            <mxPoint x="634" y="1481" as="sourcePoint" />
            <mxPoint x="977" y="1481.75" as="targetPoint" />
          </mxGeometry>
        </mxCell>
        <mxCell id="PoOB7_w7BP0IgoYagRVa-27" value="s_RegWrData" style="text;html=1;strokeColor=none;fillColor=none;align=center;verticalAlign=middle;whiteSpace=wrap;rounded=0;fontSize=18;fontFamily=Courier New;" parent="1" vertex="1">
          <mxGeometry x="2932" y="1505" width="109" height="30" as="geometry" />
        </mxCell>
        <mxCell id="PoOB7_w7BP0IgoYagRVa-29" value="&lt;font style=&quot;font-size: 12px;&quot;&gt;s_RegWrAddr&lt;/font&gt;" style="text;html=1;strokeColor=none;fillColor=none;align=center;verticalAlign=middle;whiteSpace=wrap;rounded=0;fontSize=18;" parent="1" vertex="1">
          <mxGeometry x="239" y="1590" width="79" height="13.75" as="geometry" />
        </mxCell>
        <mxCell id="PoOB7_w7BP0IgoYagRVa-33" value="s_Ovfl" style="text;html=1;strokeColor=none;fillColor=none;align=center;verticalAlign=middle;whiteSpace=wrap;rounded=0;fontSize=26;fontFamily=Courier New;" parent="1" vertex="1">
          <mxGeometry x="3187" y="1329.75" width="81" height="30" as="geometry" />
        </mxCell>
        <mxCell id="PoOB7_w7BP0IgoYagRVa-34" value="halt" style="text;html=1;strokeColor=none;fillColor=none;align=right;verticalAlign=middle;whiteSpace=wrap;rounded=0;fontFamily=Courier New;fontSize=12;fontColor=default;shadow=0;" parent="1" vertex="1">
          <mxGeometry x="63" y="1255.5" width="30" height="9.5" as="geometry" />
        </mxCell>
        <mxCell id="PoOB7_w7BP0IgoYagRVa-35" style="rounded=0;orthogonalLoop=1;jettySize=auto;html=1;shadow=0;fontFamily=Courier New;fontSize=23;fontColor=default;startArrow=none;startFill=0;endArrow=none;endFill=0;strokeColor=#FF3333;" parent="1" edge="1">
          <mxGeometry relative="1" as="geometry">
            <mxPoint x="3187" y="1260" as="sourcePoint" />
            <mxPoint x="92" y="1260" as="targetPoint" />
          </mxGeometry>
        </mxCell>
        <mxCell id="PoOB7_w7BP0IgoYagRVa-36" value="" style="endArrow=none;html=1;rounded=0;shadow=0;fontFamily=Courier New;fontSize=23;fontColor=default;strokeColor=#FF3333;" parent="1" edge="1">
          <mxGeometry width="50" height="50" relative="1" as="geometry">
            <mxPoint x="106" y="1257" as="sourcePoint" />
            <mxPoint x="110" y="1262.9999999999995" as="targetPoint" />
          </mxGeometry>
        </mxCell>
        <mxCell id="Dzn5CRCUIPu2wGvUZ2na-1" value="" style="endArrow=none;html=1;rounded=0;" parent="1" edge="1">
          <mxGeometry width="50" height="50" relative="1" as="geometry">
            <mxPoint x="1077" y="1410" as="sourcePoint" />
            <mxPoint x="1077" y="842" as="targetPoint" />
          </mxGeometry>
        </mxCell>
        <mxCell id="Dzn5CRCUIPu2wGvUZ2na-2" value="" style="endArrow=none;html=1;rounded=0;" parent="1" edge="1">
          <mxGeometry width="50" height="50" relative="1" as="geometry">
            <mxPoint x="1076.45" y="837.16" as="sourcePoint" />
            <mxPoint x="1076" y="725" as="targetPoint" />
          </mxGeometry>
        </mxCell>
        <mxCell id="Dzn5CRCUIPu2wGvUZ2na-7" value="" style="endArrow=classic;html=1;rounded=0;endFill=1;" parent="1" edge="1">
          <mxGeometry width="50" height="50" relative="1" as="geometry">
            <mxPoint x="2630" y="1519" as="sourcePoint" />
            <mxPoint x="2837" y="1520" as="targetPoint" />
          </mxGeometry>
        </mxCell>
        <mxCell id="Dzn5CRCUIPu2wGvUZ2na-8" value="" style="endArrow=none;html=1;rounded=0;" parent="1" edge="1">
          <mxGeometry width="50" height="50" relative="1" as="geometry">
            <mxPoint x="2630" y="1519" as="sourcePoint" />
            <mxPoint x="2630" y="1413" as="targetPoint" />
          </mxGeometry>
        </mxCell>
        <mxCell id="Dzn5CRCUIPu2wGvUZ2na-9" value="" style="endArrow=none;html=1;rounded=0;" parent="1" edge="1">
          <mxGeometry width="50" height="50" relative="1" as="geometry">
            <mxPoint x="1077" y="1410" as="sourcePoint" />
            <mxPoint x="2630" y="1413" as="targetPoint" />
          </mxGeometry>
        </mxCell>
        <mxCell id="Dzn5CRCUIPu2wGvUZ2na-10" value="00" style="text;html=1;strokeColor=none;fillColor=none;align=center;verticalAlign=middle;whiteSpace=wrap;rounded=0;" parent="1" vertex="1">
          <mxGeometry x="2845" y="1483.75" width="14" height="9" as="geometry" />
        </mxCell>
        <mxCell id="Dzn5CRCUIPu2wGvUZ2na-17" value="01" style="text;html=1;strokeColor=none;fillColor=none;align=center;verticalAlign=middle;whiteSpace=wrap;rounded=0;" parent="1" vertex="1">
          <mxGeometry x="2845" y="1516" width="16" height="8" as="geometry" />
        </mxCell>
        <mxCell id="Dzn5CRCUIPu2wGvUZ2na-19" value="10" style="text;html=1;strokeColor=none;fillColor=none;align=center;verticalAlign=middle;whiteSpace=wrap;rounded=0;" parent="1" vertex="1">
          <mxGeometry x="2845" y="1552" width="16" height="8" as="geometry" />
        </mxCell>
        <mxCell id="Dzn5CRCUIPu2wGvUZ2na-48" style="rounded=0;orthogonalLoop=1;jettySize=auto;html=1;exitX=0.778;exitY=0.972;exitDx=0;exitDy=0;shadow=0;fontFamily=Courier New;fontSize=23;fontColor=default;startArrow=none;startFill=0;endArrow=none;endFill=0;exitPerimeter=0;strokeColor=#FF3333;" parent="1" edge="1">
          <mxGeometry relative="1" as="geometry">
            <mxPoint x="68.93000000000006" y="1382.116" as="sourcePoint" />
            <mxPoint x="48.25" y="1382.2500000000005" as="targetPoint" />
          </mxGeometry>
        </mxCell>
        <mxCell id="Dzn5CRCUIPu2wGvUZ2na-49" value="" style="endArrow=none;html=1;rounded=0;shadow=0;fontFamily=Courier New;fontSize=23;fontColor=default;strokeColor=#FF3333;" parent="1" edge="1">
          <mxGeometry width="50" height="50" relative="1" as="geometry">
            <mxPoint x="57" y="1380" as="sourcePoint" />
            <mxPoint x="61" y="1385.9999999999995" as="targetPoint" />
          </mxGeometry>
        </mxCell>
        <mxCell id="Dzn5CRCUIPu2wGvUZ2na-50" value="5" style="text;html=1;strokeColor=none;fillColor=none;align=center;verticalAlign=middle;whiteSpace=wrap;rounded=0;fontFamily=Courier New;fontSize=12;fontColor=default;" parent="1" vertex="1">
          <mxGeometry x="54" y="1385" width="5.5" height="7" as="geometry" />
        </mxCell>
        <mxCell id="Dzn5CRCUIPu2wGvUZ2na-51" value="extSel" style="text;html=1;strokeColor=none;fillColor=none;align=right;verticalAlign=middle;whiteSpace=wrap;rounded=0;fontFamily=Courier New;fontSize=12;fontColor=default;shadow=0;" parent="1" vertex="1">
          <mxGeometry x="39" y="1355" width="24" height="9.5" as="geometry" />
        </mxCell>
        <mxCell id="Dzn5CRCUIPu2wGvUZ2na-53" value="" style="endArrow=none;html=1;rounded=0;shadow=0;fontFamily=Courier New;fontSize=23;fontColor=default;strokeColor=#FF3333;" parent="1" edge="1">
          <mxGeometry width="50" height="50" relative="1" as="geometry">
            <mxPoint x="71" y="1357.25" as="sourcePoint" />
            <mxPoint x="75" y="1363.2499999999995" as="targetPoint" />
          </mxGeometry>
        </mxCell>
        <mxCell id="Dzn5CRCUIPu2wGvUZ2na-54" value="1" style="text;html=1;strokeColor=none;fillColor=none;align=center;verticalAlign=middle;whiteSpace=wrap;rounded=0;fontFamily=Courier New;fontSize=12;fontColor=default;" parent="1" vertex="1">
          <mxGeometry x="67" y="1362.25" width="4" height="9" as="geometry" />
        </mxCell>
        <mxCell id="Dzn5CRCUIPu2wGvUZ2na-55" value="ALUControlOp" style="text;html=1;strokeColor=none;fillColor=none;align=right;verticalAlign=middle;whiteSpace=wrap;rounded=0;fontFamily=Courier New;fontSize=12;fontColor=default;shadow=0;" parent="1" vertex="1">
          <mxGeometry x="25.25" y="1376.5" width="21" height="9.5" as="geometry" />
        </mxCell>
        <mxCell id="Dzn5CRCUIPu2wGvUZ2na-60" style="rounded=0;orthogonalLoop=1;jettySize=auto;html=1;shadow=0;fontFamily=Courier New;fontSize=23;fontColor=default;startArrow=none;startFill=0;endArrow=none;endFill=0;strokeColor=#FF3333;" parent="1" edge="1">
          <mxGeometry relative="1" as="geometry">
            <mxPoint x="411" y="1120" as="sourcePoint" />
            <mxPoint x="73" y="1120" as="targetPoint" />
          </mxGeometry>
        </mxCell>
        <mxCell id="Dzn5CRCUIPu2wGvUZ2na-61" value="" style="endArrow=none;html=1;rounded=0;shadow=0;fontFamily=Courier New;fontSize=23;fontColor=default;strokeColor=#FF3333;" parent="1" edge="1">
          <mxGeometry width="50" height="50" relative="1" as="geometry">
            <mxPoint x="86.25" y="1116.95" as="sourcePoint" />
            <mxPoint x="90.25" y="1122.9499999999996" as="targetPoint" />
          </mxGeometry>
        </mxCell>
        <mxCell id="Dzn5CRCUIPu2wGvUZ2na-62" value="1" style="text;html=1;strokeColor=none;fillColor=none;align=center;verticalAlign=middle;whiteSpace=wrap;rounded=0;fontFamily=Courier New;fontSize=12;fontColor=default;" parent="1" vertex="1">
          <mxGeometry x="84" y="1123" width="6" height="7.38" as="geometry" />
        </mxCell>
        <mxCell id="Dzn5CRCUIPu2wGvUZ2na-63" value="BranchInstr" style="text;html=1;strokeColor=none;fillColor=none;align=right;verticalAlign=middle;whiteSpace=wrap;rounded=0;fontFamily=Courier New;fontSize=12;fontColor=default;shadow=0;" parent="1" vertex="1">
          <mxGeometry x="38.25" y="1114.2" width="24" height="9.5" as="geometry" />
        </mxCell>
        <mxCell id="Dzn5CRCUIPu2wGvUZ2na-65" value="" style="endArrow=none;html=1;rounded=0;shadow=0;fontFamily=Courier New;fontSize=23;fontColor=default;strokeColor=#FF3333;" parent="1" edge="1">
          <mxGeometry width="50" height="50" relative="1" as="geometry">
            <mxPoint x="80.25" y="1100.75" as="sourcePoint" />
            <mxPoint x="84.25" y="1106.7499999999995" as="targetPoint" />
          </mxGeometry>
        </mxCell>
        <mxCell id="Dzn5CRCUIPu2wGvUZ2na-66" value="1" style="text;html=1;strokeColor=none;fillColor=none;align=center;verticalAlign=middle;whiteSpace=wrap;rounded=0;fontFamily=Courier New;fontSize=12;fontColor=default;" parent="1" vertex="1">
          <mxGeometry x="76.25" y="1105.95" width="5.75" height="8.25" as="geometry" />
        </mxCell>
        <mxCell id="Dzn5CRCUIPu2wGvUZ2na-67" value="BranchType" style="text;html=1;strokeColor=none;fillColor=none;align=right;verticalAlign=middle;whiteSpace=wrap;rounded=0;fontFamily=Courier New;fontSize=12;fontColor=default;shadow=0;" parent="1" vertex="1">
          <mxGeometry x="31.25" y="1098" width="21" height="9.5" as="geometry" />
        </mxCell>
        <mxCell id="Dzn5CRCUIPu2wGvUZ2na-68" style="rounded=0;orthogonalLoop=1;jettySize=auto;html=1;shadow=0;fontFamily=Courier New;fontSize=23;fontColor=default;startArrow=none;startFill=0;endArrow=none;endFill=0;strokeColor=#FF3333;entryX=-0.089;entryY=-0.159;entryDx=0;entryDy=0;entryPerimeter=0;" parent="1" edge="1">
          <mxGeometry relative="1" as="geometry">
            <mxPoint x="394" y="1153" as="sourcePoint" />
            <mxPoint x="85.00400000000013" y="1152.251" as="targetPoint" />
          </mxGeometry>
        </mxCell>
        <mxCell id="Dzn5CRCUIPu2wGvUZ2na-69" value="" style="endArrow=none;html=1;rounded=0;shadow=0;fontFamily=Courier New;fontSize=23;fontColor=default;strokeColor=#FF3333;" parent="1" edge="1">
          <mxGeometry width="50" height="50" relative="1" as="geometry">
            <mxPoint x="99.25" y="1149.5" as="sourcePoint" />
            <mxPoint x="103.25" y="1155.4999999999995" as="targetPoint" />
          </mxGeometry>
        </mxCell>
        <mxCell id="Dzn5CRCUIPu2wGvUZ2na-71" value="JumpReg" style="text;html=1;strokeColor=none;fillColor=none;align=right;verticalAlign=middle;whiteSpace=wrap;rounded=0;fontFamily=Courier New;fontSize=12;fontColor=default;shadow=0;" parent="1" vertex="1">
          <mxGeometry x="52.25" y="1146.75" width="24" height="9.5" as="geometry" />
        </mxCell>
        <mxCell id="Dzn5CRCUIPu2wGvUZ2na-72" style="rounded=0;orthogonalLoop=1;jettySize=auto;html=1;shadow=0;fontFamily=Courier New;fontSize=23;fontColor=default;startArrow=none;startFill=0;endArrow=none;endFill=0;strokeColor=#FF3333;" parent="1" edge="1">
          <mxGeometry relative="1" as="geometry">
            <mxPoint x="402" y="1137" as="sourcePoint" />
            <mxPoint x="80" y="1137" as="targetPoint" />
          </mxGeometry>
        </mxCell>
        <mxCell id="Dzn5CRCUIPu2wGvUZ2na-73" value="" style="endArrow=none;html=1;rounded=0;shadow=0;fontFamily=Courier New;fontSize=23;fontColor=default;strokeColor=#FF3333;" parent="1" edge="1">
          <mxGeometry width="50" height="50" relative="1" as="geometry">
            <mxPoint x="93" y="1134.13" as="sourcePoint" />
            <mxPoint x="97" y="1140.1299999999997" as="targetPoint" />
          </mxGeometry>
        </mxCell>
        <mxCell id="Dzn5CRCUIPu2wGvUZ2na-74" value="1" style="text;html=1;strokeColor=none;fillColor=none;align=center;verticalAlign=middle;whiteSpace=wrap;rounded=0;fontFamily=Courier New;fontSize=12;fontColor=default;" parent="1" vertex="1">
          <mxGeometry x="90" y="1140" width="5" height="7.63" as="geometry" />
        </mxCell>
        <mxCell id="Dzn5CRCUIPu2wGvUZ2na-75" value="JumpInstr" style="text;html=1;strokeColor=none;fillColor=none;align=right;verticalAlign=middle;whiteSpace=wrap;rounded=0;fontFamily=Courier New;fontSize=12;fontColor=default;shadow=0;" parent="1" vertex="1">
          <mxGeometry x="49" y="1131.38" width="21" height="9.5" as="geometry" />
        </mxCell>
        <mxCell id="Dzn5CRCUIPu2wGvUZ2na-76" style="rounded=0;orthogonalLoop=1;jettySize=auto;html=1;shadow=0;fontFamily=Courier New;fontSize=23;fontColor=default;startArrow=none;startFill=0;endArrow=none;endFill=0;strokeColor=#FF3333;" parent="1" edge="1">
          <mxGeometry relative="1" as="geometry">
            <mxPoint x="2872" y="1281" as="sourcePoint" />
            <mxPoint x="90" y="1281" as="targetPoint" />
          </mxGeometry>
        </mxCell>
        <mxCell id="Dzn5CRCUIPu2wGvUZ2na-77" value="" style="endArrow=none;html=1;rounded=0;shadow=0;fontFamily=Courier New;fontSize=23;fontColor=default;strokeColor=#FF3333;" parent="1" edge="1">
          <mxGeometry width="50" height="50" relative="1" as="geometry">
            <mxPoint x="102" y="1278.75" as="sourcePoint" />
            <mxPoint x="106" y="1284.7499999999995" as="targetPoint" />
          </mxGeometry>
        </mxCell>
        <mxCell id="Dzn5CRCUIPu2wGvUZ2na-78" value="2" style="text;html=1;strokeColor=none;fillColor=none;align=center;verticalAlign=middle;whiteSpace=wrap;rounded=0;fontFamily=Courier New;fontSize=12;fontColor=default;" parent="1" vertex="1">
          <mxGeometry x="98" y="1284" width="6" height="8.25" as="geometry" />
        </mxCell>
        <mxCell id="Dzn5CRCUIPu2wGvUZ2na-79" value="Write_Data_Sel" style="text;html=1;strokeColor=none;fillColor=none;align=right;verticalAlign=middle;whiteSpace=wrap;rounded=0;fontFamily=Courier New;fontSize=12;fontColor=default;shadow=0;" parent="1" vertex="1">
          <mxGeometry x="67" y="1275" width="24" height="9.5" as="geometry" />
        </mxCell>
        <mxCell id="Dzn5CRCUIPu2wGvUZ2na-80" style="rounded=0;orthogonalLoop=1;jettySize=auto;html=1;shadow=0;fontFamily=Courier New;fontSize=23;fontColor=default;startArrow=none;startFill=0;endArrow=none;endFill=0;strokeColor=#FF3333;" parent="1" edge="1">
          <mxGeometry relative="1" as="geometry">
            <mxPoint x="2013" y="1300" as="sourcePoint" />
            <mxPoint x="87" y="1300" as="targetPoint" />
          </mxGeometry>
        </mxCell>
        <mxCell id="Dzn5CRCUIPu2wGvUZ2na-81" value="" style="endArrow=none;html=1;rounded=0;shadow=0;fontFamily=Courier New;fontSize=23;fontColor=default;strokeColor=#FF3333;" parent="1" edge="1">
          <mxGeometry width="50" height="50" relative="1" as="geometry">
            <mxPoint x="97" y="1297.75" as="sourcePoint" />
            <mxPoint x="101" y="1303.7499999999995" as="targetPoint" />
          </mxGeometry>
        </mxCell>
        <mxCell id="Dzn5CRCUIPu2wGvUZ2na-82" value="1" style="text;html=1;strokeColor=none;fillColor=none;align=center;verticalAlign=middle;whiteSpace=wrap;rounded=0;fontFamily=Courier New;fontSize=12;fontColor=default;" parent="1" vertex="1">
          <mxGeometry x="95.25" y="1304.5" width="5" height="8.5" as="geometry" />
        </mxCell>
        <mxCell id="Dzn5CRCUIPu2wGvUZ2na-83" value="DMemWr" style="text;html=1;strokeColor=none;fillColor=none;align=right;verticalAlign=middle;whiteSpace=wrap;rounded=0;fontFamily=Courier New;fontSize=12;fontColor=default;shadow=0;" parent="1" vertex="1">
          <mxGeometry x="66" y="1294" width="21" height="9.5" as="geometry" />
        </mxCell>
        <mxCell id="Dzn5CRCUIPu2wGvUZ2na-84" style="rounded=0;orthogonalLoop=1;jettySize=auto;html=1;shadow=0;fontFamily=Courier New;fontSize=23;fontColor=default;startArrow=none;startFill=0;endArrow=none;endFill=0;strokeColor=#FF3333;" parent="1" edge="1">
          <mxGeometry relative="1" as="geometry">
            <mxPoint x="895" y="1318" as="sourcePoint" />
            <mxPoint x="82" y="1317" as="targetPoint" />
          </mxGeometry>
        </mxCell>
        <mxCell id="Dzn5CRCUIPu2wGvUZ2na-85" value="" style="endArrow=none;html=1;rounded=0;shadow=0;fontFamily=Courier New;fontSize=23;fontColor=default;strokeColor=#FF3333;" parent="1" edge="1">
          <mxGeometry width="50" height="50" relative="1" as="geometry">
            <mxPoint x="90.5" y="1314.75" as="sourcePoint" />
            <mxPoint x="94.5" y="1320.7499999999995" as="targetPoint" />
          </mxGeometry>
        </mxCell>
        <mxCell id="Dzn5CRCUIPu2wGvUZ2na-86" value="1" style="text;html=1;strokeColor=none;fillColor=none;align=center;verticalAlign=middle;whiteSpace=wrap;rounded=0;fontFamily=Courier New;fontSize=12;fontColor=default;" parent="1" vertex="1">
          <mxGeometry x="88.5" y="1320.5" width="4.5" height="9.25" as="geometry" />
        </mxCell>
        <mxCell id="Dzn5CRCUIPu2wGvUZ2na-87" value="ALUsrc" style="text;html=1;strokeColor=none;fillColor=none;align=right;verticalAlign=middle;whiteSpace=wrap;rounded=0;fontFamily=Courier New;fontSize=12;fontColor=default;shadow=0;" parent="1" vertex="1">
          <mxGeometry x="57.5" y="1311" width="24" height="9.5" as="geometry" />
        </mxCell>
        <mxCell id="Dzn5CRCUIPu2wGvUZ2na-89" value="" style="endArrow=none;html=1;rounded=0;shadow=0;fontFamily=Courier New;fontSize=23;fontColor=default;strokeColor=#FF3333;" parent="1" edge="1">
          <mxGeometry width="50" height="50" relative="1" as="geometry">
            <mxPoint x="81" y="1343" as="sourcePoint" />
            <mxPoint x="85" y="1348.9999999999995" as="targetPoint" />
          </mxGeometry>
        </mxCell>
        <mxCell id="Dzn5CRCUIPu2wGvUZ2na-90" value="1" style="text;html=1;strokeColor=none;fillColor=none;align=center;verticalAlign=middle;whiteSpace=wrap;rounded=0;fontFamily=Courier New;fontSize=12;fontColor=default;" parent="1" vertex="1">
          <mxGeometry x="77" y="1348" width="6.75" height="8" as="geometry" />
        </mxCell>
        <mxCell id="Dzn5CRCUIPu2wGvUZ2na-91" value="RegWr" style="text;html=1;strokeColor=none;fillColor=none;align=right;verticalAlign=middle;whiteSpace=wrap;rounded=0;fontFamily=Courier New;fontSize=12;fontColor=default;shadow=0;" parent="1" vertex="1">
          <mxGeometry x="49.25" y="1340.75" width="21" height="9.5" as="geometry" />
        </mxCell>
        <mxCell id="Dzn5CRCUIPu2wGvUZ2na-93" value="" style="endArrow=none;html=1;rounded=0;shadow=0;fontFamily=Courier New;fontSize=23;fontColor=default;strokeColor=#FF3333;" parent="1" edge="1">
          <mxGeometry width="50" height="50" relative="1" as="geometry">
            <mxPoint x="86" y="1329.5" as="sourcePoint" />
            <mxPoint x="90" y="1335.4999999999995" as="targetPoint" />
          </mxGeometry>
        </mxCell>
        <mxCell id="Dzn5CRCUIPu2wGvUZ2na-94" value="2" style="text;html=1;strokeColor=none;fillColor=none;align=center;verticalAlign=middle;whiteSpace=wrap;rounded=0;fontFamily=Courier New;fontSize=12;fontColor=default;" parent="1" vertex="1">
          <mxGeometry x="82" y="1335" width="5.5" height="8" as="geometry" />
        </mxCell>
        <mxCell id="Dzn5CRCUIPu2wGvUZ2na-95" value="RegDest" style="text;html=1;strokeColor=none;fillColor=none;align=right;verticalAlign=middle;whiteSpace=wrap;rounded=0;fontFamily=Courier New;fontSize=12;fontColor=default;shadow=0;" parent="1" vertex="1">
          <mxGeometry x="52.75" y="1326.75" width="24" height="9.5" as="geometry" />
        </mxCell>
        <mxCell id="Dzn5CRCUIPu2wGvUZ2na-100" value="1" style="text;html=1;strokeColor=none;fillColor=none;align=center;verticalAlign=middle;whiteSpace=wrap;rounded=0;fontFamily=Courier New;fontSize=12;fontColor=default;" parent="1" vertex="1">
          <mxGeometry x="103" y="1262" width="4.5" height="8" as="geometry" />
        </mxCell>
        <mxCell id="Dzn5CRCUIPu2wGvUZ2na-101" value="" style="endArrow=none;html=1;rounded=0;fillColor=#0050ef;strokeColor=#FF3333;entryX=0.204;entryY=0.249;entryDx=0;entryDy=0;entryPerimeter=0;" parent="1" target="1kfZFv9F9Y2PhZVG0dYN-65" edge="1">
          <mxGeometry width="50" height="50" relative="1" as="geometry">
            <mxPoint x="66" y="1104" as="sourcePoint" />
            <mxPoint x="1501" y="1104" as="targetPoint" />
          </mxGeometry>
        </mxCell>
        <mxCell id="Dzn5CRCUIPu2wGvUZ2na-103" value="" style="endArrow=none;html=1;rounded=0;strokeColor=#FF3333;entryX=0.001;entryY=0.728;entryDx=0;entryDy=0;entryPerimeter=0;" parent="1" target="1kfZFv9F9Y2PhZVG0dYN-66" edge="1">
          <mxGeometry width="50" height="50" relative="1" as="geometry">
            <mxPoint x="411" y="1159" as="sourcePoint" />
            <mxPoint x="1645" y="1159" as="targetPoint" />
          </mxGeometry>
        </mxCell>
        <mxCell id="Dzn5CRCUIPu2wGvUZ2na-104" value="" style="endArrow=none;html=1;rounded=0;strokeColor=#FF3333;" parent="1" edge="1">
          <mxGeometry width="50" height="50" relative="1" as="geometry">
            <mxPoint x="402" y="1193" as="sourcePoint" />
            <mxPoint x="2596" y="1193" as="targetPoint" />
          </mxGeometry>
        </mxCell>
        <mxCell id="Dzn5CRCUIPu2wGvUZ2na-105" value="" style="endArrow=none;html=1;rounded=0;strokeColor=#FF3333;" parent="1" edge="1">
          <mxGeometry width="50" height="50" relative="1" as="geometry">
            <mxPoint x="394" y="1239" as="sourcePoint" />
            <mxPoint x="2767" y="1239" as="targetPoint" />
          </mxGeometry>
        </mxCell>
        <mxCell id="Dzn5CRCUIPu2wGvUZ2na-111" value="" style="endArrow=none;html=1;rounded=0;fontSize=15;strokeColor=#FF3333;" parent="1" edge="1">
          <mxGeometry width="50" height="50" relative="1" as="geometry">
            <mxPoint x="411" y="1159" as="sourcePoint" />
            <mxPoint x="411" y="1120" as="targetPoint" />
          </mxGeometry>
        </mxCell>
        <mxCell id="Dzn5CRCUIPu2wGvUZ2na-112" value="" style="endArrow=none;html=1;rounded=0;fontSize=15;strokeColor=#FF3333;" parent="1" edge="1">
          <mxGeometry width="50" height="50" relative="1" as="geometry">
            <mxPoint x="402" y="1193" as="sourcePoint" />
            <mxPoint x="402" y="1137" as="targetPoint" />
          </mxGeometry>
        </mxCell>
        <mxCell id="Dzn5CRCUIPu2wGvUZ2na-113" value="" style="endArrow=none;html=1;rounded=0;fontSize=15;strokeColor=#FF3333;" parent="1" edge="1">
          <mxGeometry width="50" height="50" relative="1" as="geometry">
            <mxPoint x="394" y="1239" as="sourcePoint" />
            <mxPoint x="394" y="1153" as="targetPoint" />
          </mxGeometry>
        </mxCell>
        <mxCell id="Dzn5CRCUIPu2wGvUZ2na-114" value="" style="endArrow=none;html=1;rounded=0;strokeColor=#FF3333;" parent="1" edge="1">
          <mxGeometry width="50" height="50" relative="1" as="geometry">
            <mxPoint x="68" y="2032" as="sourcePoint" />
            <mxPoint x="68.5" y="1382" as="targetPoint" />
          </mxGeometry>
        </mxCell>
        <mxCell id="Dzn5CRCUIPu2wGvUZ2na-115" style="rounded=0;orthogonalLoop=1;jettySize=auto;html=1;shadow=0;fontFamily=Courier New;fontSize=23;fontColor=default;startArrow=none;startFill=0;endArrow=none;endFill=0;strokeColor=#FF3333;" parent="1" edge="1">
          <mxGeometry relative="1" as="geometry">
            <mxPoint x="477" y="2013" as="sourcePoint" />
            <mxPoint x="83" y="2013" as="targetPoint" />
          </mxGeometry>
        </mxCell>
        <mxCell id="Dzn5CRCUIPu2wGvUZ2na-116" style="rounded=0;orthogonalLoop=1;jettySize=auto;html=1;exitX=0.778;exitY=0.972;exitDx=0;exitDy=0;shadow=0;fontFamily=Courier New;fontSize=23;fontColor=default;startArrow=none;startFill=0;endArrow=none;endFill=0;exitPerimeter=0;strokeColor=#FF3333;" parent="1" edge="1">
          <mxGeometry relative="1" as="geometry">
            <mxPoint x="83.92999999999984" y="1360.116" as="sourcePoint" />
            <mxPoint x="63.25" y="1360.2500000000005" as="targetPoint" />
          </mxGeometry>
        </mxCell>
        <mxCell id="Dzn5CRCUIPu2wGvUZ2na-117" value="" style="endArrow=none;html=1;rounded=0;strokeColor=#FF3333;" parent="1" edge="1">
          <mxGeometry width="50" height="50" relative="1" as="geometry">
            <mxPoint x="83" y="2013" as="sourcePoint" />
            <mxPoint x="83.5" y="1360" as="targetPoint" />
          </mxGeometry>
        </mxCell>
        <mxCell id="Dzn5CRCUIPu2wGvUZ2na-119" style="rounded=0;orthogonalLoop=1;jettySize=auto;html=1;exitX=0.778;exitY=0.972;exitDx=0;exitDy=0;shadow=0;fontFamily=Courier New;fontSize=23;fontColor=default;startArrow=none;startFill=0;endArrow=none;endFill=0;exitPerimeter=0;strokeColor=#FF3333;" parent="1" edge="1">
          <mxGeometry relative="1" as="geometry">
            <mxPoint x="91.92999999999984" y="1346.116" as="sourcePoint" />
            <mxPoint x="71.25" y="1346.2500000000002" as="targetPoint" />
          </mxGeometry>
        </mxCell>
        <mxCell id="Dzn5CRCUIPu2wGvUZ2na-120" style="rounded=0;orthogonalLoop=1;jettySize=auto;html=1;shadow=0;fontFamily=Courier New;fontSize=23;fontColor=default;startArrow=none;startFill=0;endArrow=none;endFill=0;strokeColor=#FF3333;" parent="1" edge="1">
          <mxGeometry relative="1" as="geometry">
            <mxPoint x="205" y="1332" as="sourcePoint" />
            <mxPoint x="77" y="1332" as="targetPoint" />
          </mxGeometry>
        </mxCell>
        <mxCell id="Dzn5CRCUIPu2wGvUZ2na-121" value="" style="endArrow=none;html=1;rounded=0;strokeColor=#FF3333;" parent="1" edge="1">
          <mxGeometry width="50" height="50" relative="1" as="geometry">
            <mxPoint x="93" y="1799" as="sourcePoint" />
            <mxPoint x="92" y="1346" as="targetPoint" />
          </mxGeometry>
        </mxCell>
        <mxCell id="Dzn5CRCUIPu2wGvUZ2na-125" style="rounded=0;orthogonalLoop=1;jettySize=auto;html=1;shadow=0;fontFamily=Courier New;fontSize=23;fontColor=default;startArrow=none;startFill=0;endArrow=none;endFill=0;strokeColor=#FF3333;" parent="1" edge="1">
          <mxGeometry relative="1" as="geometry">
            <mxPoint x="552" y="1800" as="sourcePoint" />
            <mxPoint x="93" y="1799" as="targetPoint" />
          </mxGeometry>
        </mxCell>
        <mxCell id="Dzn5CRCUIPu2wGvUZ2na-127" value="" style="endArrow=none;html=1;rounded=0;fontSize=15;strokeColor=#FF3333;" parent="1" edge="1">
          <mxGeometry width="50" height="50" relative="1" as="geometry">
            <mxPoint x="2015" y="1712" as="sourcePoint" />
            <mxPoint x="2015" y="1301" as="targetPoint" />
          </mxGeometry>
        </mxCell>
        <mxCell id="Dzn5CRCUIPu2wGvUZ2na-131" value="1" style="text;html=1;strokeColor=none;fillColor=none;align=center;verticalAlign=middle;whiteSpace=wrap;rounded=0;fontFamily=Courier New;fontSize=12;fontColor=default;" parent="1" vertex="1">
          <mxGeometry x="96" y="1155" width="5" height="7.63" as="geometry" />
        </mxCell>
        <mxCell id="Dzn5CRCUIPu2wGvUZ2na-133" value="" style="endArrow=none;html=1;rounded=0;endFill=0;" parent="1" edge="1">
          <mxGeometry width="50" height="50" relative="1" as="geometry">
            <mxPoint x="1749" y="1539" as="sourcePoint" />
            <mxPoint x="1748" y="1342" as="targetPoint" />
          </mxGeometry>
        </mxCell>
        <mxCell id="Dzn5CRCUIPu2wGvUZ2na-134" value="" style="endArrow=none;html=1;rounded=0;endFill=0;" parent="1" edge="1">
          <mxGeometry width="50" height="50" relative="1" as="geometry">
            <mxPoint x="1748" y="1342" as="sourcePoint" />
            <mxPoint x="3177" y="1347" as="targetPoint" />
          </mxGeometry>
        </mxCell>
        <mxCell id="Dzn5CRCUIPu2wGvUZ2na-136" value="s_Halt" style="text;html=1;strokeColor=none;fillColor=none;align=center;verticalAlign=middle;whiteSpace=wrap;rounded=0;fontSize=26;fontFamily=Courier New;" parent="1" vertex="1">
          <mxGeometry x="3212.5" y="1240" width="47" height="30" as="geometry" />
        </mxCell>
        <mxCell id="Dzn5CRCUIPu2wGvUZ2na-138" value="" style="endArrow=none;html=1;rounded=0;endFill=0;" parent="1" edge="1">
          <mxGeometry width="50" height="50" relative="1" as="geometry">
            <mxPoint x="1967" y="1373" as="sourcePoint" />
            <mxPoint x="3172" y="1373" as="targetPoint" />
          </mxGeometry>
        </mxCell>
        <mxCell id="Dzn5CRCUIPu2wGvUZ2na-139" value="" style="endArrow=none;html=1;rounded=0;startArrow=none;" parent="1" source="Dzn5CRCUIPu2wGvUZ2na-141" edge="1">
          <mxGeometry width="50" height="50" relative="1" as="geometry">
            <mxPoint x="1966.83" y="1610" as="sourcePoint" />
            <mxPoint x="1967" y="1373" as="targetPoint" />
          </mxGeometry>
        </mxCell>
        <mxCell id="Dzn5CRCUIPu2wGvUZ2na-140" value="oALUout" style="text;html=1;strokeColor=none;fillColor=none;align=center;verticalAlign=middle;whiteSpace=wrap;rounded=0;fontSize=26;fontFamily=Courier New;" parent="1" vertex="1">
          <mxGeometry x="3180" y="1356" width="112" height="30" as="geometry" />
        </mxCell>
        <mxCell id="Dzn5CRCUIPu2wGvUZ2na-141" value="" style="ellipse;whiteSpace=wrap;html=1;aspect=fixed;fontSize=15;fillColor=#000000;" parent="1" vertex="1">
          <mxGeometry x="1962" y="1511" width="10" height="10" as="geometry" />
        </mxCell>
        <mxCell id="Dzn5CRCUIPu2wGvUZ2na-142" value="" style="endArrow=none;html=1;rounded=0;" parent="1" target="Dzn5CRCUIPu2wGvUZ2na-141" edge="1">
          <mxGeometry width="50" height="50" relative="1" as="geometry">
            <mxPoint x="1966.8299999999995" y="1610" as="sourcePoint" />
            <mxPoint x="1967" y="1373" as="targetPoint" />
          </mxGeometry>
        </mxCell>
        <mxCell id="Dzn5CRCUIPu2wGvUZ2na-143" style="rounded=0;orthogonalLoop=1;jettySize=auto;html=1;shadow=0;fontFamily=Courier New;fontSize=23;fontColor=default;startArrow=none;startFill=0;endArrow=none;endFill=0;strokeColor=#FF3333;" parent="1" edge="1">
          <mxGeometry relative="1" as="geometry">
            <mxPoint x="1368" y="1941" as="sourcePoint" />
            <mxPoint x="901" y="1940.5000000000005" as="targetPoint" />
          </mxGeometry>
        </mxCell>
        <mxCell id="Dzn5CRCUIPu2wGvUZ2na-144" value="" style="endArrow=none;html=1;rounded=0;shadow=0;fontFamily=Courier New;fontSize=23;fontColor=default;strokeColor=#FF3333;" parent="1" edge="1">
          <mxGeometry width="50" height="50" relative="1" as="geometry">
            <mxPoint x="918" y="1937.75" as="sourcePoint" />
            <mxPoint x="922" y="1943.7499999999995" as="targetPoint" />
          </mxGeometry>
        </mxCell>
        <mxCell id="Dzn5CRCUIPu2wGvUZ2na-145" value="1" style="text;html=1;strokeColor=none;fillColor=none;align=center;verticalAlign=middle;whiteSpace=wrap;rounded=0;fontFamily=Courier New;fontSize=12;fontColor=default;" parent="1" vertex="1">
          <mxGeometry x="915" y="1943.25" width="14" height="11" as="geometry" />
        </mxCell>
        <mxCell id="Dzn5CRCUIPu2wGvUZ2na-146" value="ALUslt" style="text;html=1;strokeColor=none;fillColor=none;align=right;verticalAlign=middle;whiteSpace=wrap;rounded=0;fontFamily=Courier New;fontSize=12;fontColor=default;shadow=0;" parent="1" vertex="1">
          <mxGeometry x="855" y="1935" width="45" height="9.5" as="geometry" />
        </mxCell>
        <mxCell id="Dzn5CRCUIPu2wGvUZ2na-147" style="rounded=0;orthogonalLoop=1;jettySize=auto;html=1;shadow=0;fontFamily=Courier New;fontSize=23;fontColor=default;startArrow=none;startFill=0;endArrow=none;endFill=0;strokeColor=#FF3333;" parent="1" edge="1">
          <mxGeometry relative="1" as="geometry">
            <mxPoint x="1442" y="2040" as="sourcePoint" />
            <mxPoint x="888" y="2039.5000000000005" as="targetPoint" />
          </mxGeometry>
        </mxCell>
        <mxCell id="Dzn5CRCUIPu2wGvUZ2na-148" value="" style="endArrow=none;html=1;rounded=0;shadow=0;fontFamily=Courier New;fontSize=23;fontColor=default;strokeColor=#FF3333;" parent="1" edge="1">
          <mxGeometry width="50" height="50" relative="1" as="geometry">
            <mxPoint x="905" y="2036.75" as="sourcePoint" />
            <mxPoint x="909" y="2042.7499999999995" as="targetPoint" />
          </mxGeometry>
        </mxCell>
        <mxCell id="Dzn5CRCUIPu2wGvUZ2na-149" value="1" style="text;html=1;strokeColor=none;fillColor=none;align=center;verticalAlign=middle;whiteSpace=wrap;rounded=0;fontFamily=Courier New;fontSize=12;fontColor=default;" parent="1" vertex="1">
          <mxGeometry x="902" y="2042.25" width="14" height="11" as="geometry" />
        </mxCell>
        <mxCell id="Dzn5CRCUIPu2wGvUZ2na-150" value="UnsignedSel" style="text;html=1;strokeColor=none;fillColor=none;align=right;verticalAlign=middle;whiteSpace=wrap;rounded=0;fontFamily=Courier New;fontSize=12;fontColor=default;shadow=0;" parent="1" vertex="1">
          <mxGeometry x="807" y="2034" width="80" height="9.5" as="geometry" />
        </mxCell>
        <mxCell id="Dzn5CRCUIPu2wGvUZ2na-151" style="rounded=0;orthogonalLoop=1;jettySize=auto;html=1;shadow=0;fontFamily=Courier New;fontSize=23;fontColor=default;startArrow=none;startFill=0;endArrow=none;endFill=0;strokeColor=#FF3333;" parent="1" edge="1">
          <mxGeometry relative="1" as="geometry">
            <mxPoint x="885" y="1862" as="sourcePoint" />
            <mxPoint x="853" y="1861.5000000000005" as="targetPoint" />
          </mxGeometry>
        </mxCell>
        <mxCell id="Dzn5CRCUIPu2wGvUZ2na-152" value="" style="endArrow=none;html=1;rounded=0;shadow=0;fontFamily=Courier New;fontSize=23;fontColor=default;strokeColor=#FF3333;" parent="1" edge="1">
          <mxGeometry width="50" height="50" relative="1" as="geometry">
            <mxPoint x="870" y="1858.75" as="sourcePoint" />
            <mxPoint x="874" y="1864.7499999999995" as="targetPoint" />
          </mxGeometry>
        </mxCell>
        <mxCell id="Dzn5CRCUIPu2wGvUZ2na-153" value="2" style="text;html=1;strokeColor=none;fillColor=none;align=center;verticalAlign=middle;whiteSpace=wrap;rounded=0;fontFamily=Courier New;fontSize=12;fontColor=default;" parent="1" vertex="1">
          <mxGeometry x="867" y="1864.25" width="14" height="11" as="geometry" />
        </mxCell>
        <mxCell id="Dzn5CRCUIPu2wGvUZ2na-154" value="ShiftType" style="text;html=1;strokeColor=none;fillColor=none;align=right;verticalAlign=middle;whiteSpace=wrap;rounded=0;fontFamily=Courier New;fontSize=12;fontColor=default;shadow=0;" parent="1" vertex="1">
          <mxGeometry x="787" y="1856" width="65" height="9.5" as="geometry" />
        </mxCell>
        <mxCell id="Dzn5CRCUIPu2wGvUZ2na-155" style="rounded=0;orthogonalLoop=1;jettySize=auto;html=1;shadow=0;fontFamily=Courier New;fontSize=23;fontColor=default;startArrow=none;startFill=0;endArrow=none;endFill=0;strokeColor=#FF3333;" parent="1" edge="1">
          <mxGeometry relative="1" as="geometry">
            <mxPoint x="1326" y="1898" as="sourcePoint" />
            <mxPoint x="885" y="1897.5000000000005" as="targetPoint" />
          </mxGeometry>
        </mxCell>
        <mxCell id="Dzn5CRCUIPu2wGvUZ2na-156" value="" style="endArrow=none;html=1;rounded=0;shadow=0;fontFamily=Courier New;fontSize=23;fontColor=default;strokeColor=#FF3333;" parent="1" edge="1">
          <mxGeometry width="50" height="50" relative="1" as="geometry">
            <mxPoint x="901" y="1894.75" as="sourcePoint" />
            <mxPoint x="905" y="1900.7499999999995" as="targetPoint" />
          </mxGeometry>
        </mxCell>
        <mxCell id="Dzn5CRCUIPu2wGvUZ2na-157" value="4" style="text;html=1;strokeColor=none;fillColor=none;align=center;verticalAlign=middle;whiteSpace=wrap;rounded=0;fontFamily=Courier New;fontSize=12;fontColor=default;" parent="1" vertex="1">
          <mxGeometry x="893" y="1901.5" width="14" height="11" as="geometry" />
        </mxCell>
        <mxCell id="Dzn5CRCUIPu2wGvUZ2na-158" value="ALUop" style="text;html=1;strokeColor=none;fillColor=none;align=right;verticalAlign=middle;whiteSpace=wrap;rounded=0;fontFamily=Courier New;fontSize=12;fontColor=default;shadow=0;" parent="1" vertex="1">
          <mxGeometry x="844" y="1892" width="39" height="9.5" as="geometry" />
        </mxCell>
        <mxCell id="Dzn5CRCUIPu2wGvUZ2na-159" value="" style="endArrow=classic;html=1;rounded=0;" parent="1" edge="1">
          <mxGeometry width="50" height="50" relative="1" as="geometry">
            <mxPoint x="702" y="1672" as="sourcePoint" />
            <mxPoint x="1306" y="1672" as="targetPoint" />
          </mxGeometry>
        </mxCell>
        <mxCell id="Dzn5CRCUIPu2wGvUZ2na-161" value="" style="endArrow=none;html=1;rounded=0;shadow=0;fontFamily=Courier New;fontSize=23;fontColor=default;" parent="1" edge="1">
          <mxGeometry width="50" height="50" relative="1" as="geometry">
            <mxPoint x="1286" y="1669" as="sourcePoint" />
            <mxPoint x="1290" y="1674.9999999999995" as="targetPoint" />
          </mxGeometry>
        </mxCell>
        <mxCell id="Dzn5CRCUIPu2wGvUZ2na-164" value="" style="endArrow=classic;html=1;rounded=0;strokeColor=#FF3333;" parent="1" edge="1">
          <mxGeometry width="50" height="50" relative="1" as="geometry">
            <mxPoint x="885" y="1690" as="sourcePoint" />
            <mxPoint x="1308" y="1691" as="targetPoint" />
          </mxGeometry>
        </mxCell>
        <mxCell id="Dzn5CRCUIPu2wGvUZ2na-165" value="" style="endArrow=none;html=1;rounded=0;fontSize=15;strokeColor=#FF3333;" parent="1" edge="1">
          <mxGeometry width="50" height="50" relative="1" as="geometry">
            <mxPoint x="885" y="1862" as="sourcePoint" />
            <mxPoint x="885" y="1690" as="targetPoint" />
          </mxGeometry>
        </mxCell>
        <mxCell id="Dzn5CRCUIPu2wGvUZ2na-167" value="" style="endArrow=classic;html=1;rounded=0;fontSize=15;startArrow=none;startFill=0;endFill=1;strokeColor=#FF3333;" parent="1" edge="1">
          <mxGeometry width="50" height="50" relative="1" as="geometry">
            <mxPoint x="1327" y="1898" as="sourcePoint" />
            <mxPoint x="1327" y="1720.5" as="targetPoint" />
          </mxGeometry>
        </mxCell>
        <mxCell id="Dzn5CRCUIPu2wGvUZ2na-168" value="" style="endArrow=classic;html=1;rounded=0;fontSize=15;startArrow=none;startFill=0;endFill=1;strokeColor=#FF3333;" parent="1" edge="1">
          <mxGeometry width="50" height="50" relative="1" as="geometry">
            <mxPoint x="1368" y="1941" as="sourcePoint" />
            <mxPoint x="1368.26" y="1699" as="targetPoint" />
          </mxGeometry>
        </mxCell>
        <mxCell id="Dzn5CRCUIPu2wGvUZ2na-169" value="" style="endArrow=classic;html=1;rounded=0;fontSize=15;startArrow=none;startFill=0;endFill=1;strokeColor=#FF3333;" parent="1" edge="1">
          <mxGeometry width="50" height="50" relative="1" as="geometry">
            <mxPoint x="1406" y="1991" as="sourcePoint" />
            <mxPoint x="1406" y="1679.5" as="targetPoint" />
          </mxGeometry>
        </mxCell>
        <mxCell id="Dzn5CRCUIPu2wGvUZ2na-170" value="" style="endArrow=classic;html=1;rounded=0;fontSize=15;startArrow=none;startFill=0;endFill=1;strokeColor=#FF3333;" parent="1" edge="1">
          <mxGeometry width="50" height="50" relative="1" as="geometry">
            <mxPoint x="1442" y="2040" as="sourcePoint" />
            <mxPoint x="1442" y="1661" as="targetPoint" />
          </mxGeometry>
        </mxCell>
        <mxCell id="Dzn5CRCUIPu2wGvUZ2na-171" value="" style="endArrow=classic;html=1;rounded=0;endFill=1;" parent="1" edge="1">
          <mxGeometry width="50" height="50" relative="1" as="geometry">
            <mxPoint x="2566" y="1556" as="sourcePoint" />
            <mxPoint x="2837" y="1556" as="targetPoint" />
          </mxGeometry>
        </mxCell>
        <mxCell id="Dzn5CRCUIPu2wGvUZ2na-172" value="" style="endArrow=none;html=1;rounded=0;fontSize=15;" parent="1" edge="1">
          <mxGeometry width="50" height="50" relative="1" as="geometry">
            <mxPoint x="1967" y="1762" as="sourcePoint" />
            <mxPoint x="1966.69" y="1608.25" as="targetPoint" />
          </mxGeometry>
        </mxCell>
        <mxCell id="Dzn5CRCUIPu2wGvUZ2na-176" value="" style="endArrow=none;html=1;rounded=0;fontSize=15;startArrow=none;" parent="1" source="Dzn5CRCUIPu2wGvUZ2na-230" edge="1">
          <mxGeometry width="50" height="50" relative="1" as="geometry">
            <mxPoint x="-129" y="1534" as="sourcePoint" />
            <mxPoint x="-129" y="1195" as="targetPoint" />
          </mxGeometry>
        </mxCell>
        <mxCell id="Dzn5CRCUIPu2wGvUZ2na-177" value="" style="ellipse;whiteSpace=wrap;html=1;aspect=fixed;fontSize=15;fillColor=#000000;" parent="1" vertex="1">
          <mxGeometry x="-207" y="1529.5" width="9.25" height="9.25" as="geometry" />
        </mxCell>
        <mxCell id="Dzn5CRCUIPu2wGvUZ2na-184" style="rounded=0;orthogonalLoop=1;jettySize=auto;html=1;shadow=0;fontFamily=Courier New;fontSize=23;fontColor=default;startArrow=none;startFill=0;endArrow=none;endFill=0;exitX=0;exitY=0.5;exitDx=0;exitDy=0;entryX=1.024;entryY=0.335;entryDx=0;entryDy=0;entryPerimeter=0;" parent="1" source="Dzn5CRCUIPu2wGvUZ2na-177" edge="1" target="7AcrwSVY3at2XOGS3Gc--121">
          <mxGeometry relative="1" as="geometry">
            <mxPoint x="-204" y="1534" as="sourcePoint" />
            <mxPoint x="-220" y="1534" as="targetPoint" />
          </mxGeometry>
        </mxCell>
        <mxCell id="Dzn5CRCUIPu2wGvUZ2na-185" style="rounded=0;orthogonalLoop=1;jettySize=auto;html=1;shadow=0;fontFamily=Courier New;fontSize=23;fontColor=default;startArrow=none;startFill=0;endArrow=none;endFill=0;" parent="1" source="Dzn5CRCUIPu2wGvUZ2na-186" edge="1">
          <mxGeometry relative="1" as="geometry">
            <mxPoint x="-129" y="1534" as="sourcePoint" />
            <mxPoint x="-197.75" y="1534.03" as="targetPoint" />
          </mxGeometry>
        </mxCell>
        <mxCell id="Dzn5CRCUIPu2wGvUZ2na-186" value="" style="ellipse;whiteSpace=wrap;html=1;aspect=fixed;fontSize=15;fillColor=#000000;" parent="1" vertex="1">
          <mxGeometry x="-133.25" y="1529.5" width="9.25" height="9.25" as="geometry" />
        </mxCell>
        <mxCell id="Dzn5CRCUIPu2wGvUZ2na-187" value="" style="rounded=0;orthogonalLoop=1;jettySize=auto;html=1;shadow=0;fontFamily=Courier New;fontSize=23;fontColor=default;startArrow=none;startFill=0;endArrow=none;endFill=0;" parent="1" target="Dzn5CRCUIPu2wGvUZ2na-186" edge="1">
          <mxGeometry relative="1" as="geometry">
            <mxPoint x="-129" y="1534" as="sourcePoint" />
            <mxPoint x="-197.75" y="1534.0299999999997" as="targetPoint" />
          </mxGeometry>
        </mxCell>
        <mxCell id="Dzn5CRCUIPu2wGvUZ2na-188" value="" style="ellipse;whiteSpace=wrap;html=1;aspect=fixed;fontSize=15;fillColor=#000000;" parent="1" vertex="1">
          <mxGeometry x="-133.25" y="1472.37" width="9.25" height="9.25" as="geometry" />
        </mxCell>
        <mxCell id="Dzn5CRCUIPu2wGvUZ2na-189" value="" style="endArrow=none;html=1;rounded=0;fontSize=15;" parent="1" target="Dzn5CRCUIPu2wGvUZ2na-188" edge="1">
          <mxGeometry width="50" height="50" relative="1" as="geometry">
            <mxPoint x="-129" y="1534" as="sourcePoint" />
            <mxPoint x="-129" y="1194.9999999999998" as="targetPoint" />
          </mxGeometry>
        </mxCell>
        <mxCell id="Dzn5CRCUIPu2wGvUZ2na-190" value="" style="ellipse;whiteSpace=wrap;html=1;aspect=fixed;fontSize=15;fillColor=#000000;" parent="1" vertex="1">
          <mxGeometry x="-133.25" y="1445" width="9.25" height="9.25" as="geometry" />
        </mxCell>
        <mxCell id="Dzn5CRCUIPu2wGvUZ2na-191" value="" style="ellipse;whiteSpace=wrap;html=1;aspect=fixed;fontSize=15;fillColor=#000000;" parent="1" vertex="1">
          <mxGeometry x="-133.25" y="1256" width="9.25" height="9.25" as="geometry" />
        </mxCell>
        <mxCell id="Dzn5CRCUIPu2wGvUZ2na-192" value="" style="endArrow=none;html=1;rounded=0;fontSize=15;startArrow=none;" parent="1" source="Dzn5CRCUIPu2wGvUZ2na-188" target="Dzn5CRCUIPu2wGvUZ2na-191" edge="1">
          <mxGeometry width="50" height="50" relative="1" as="geometry">
            <mxPoint x="-128.63020837919134" y="1472.3699592780026" as="sourcePoint" />
            <mxPoint x="-129" y="1194.9999999999998" as="targetPoint" />
          </mxGeometry>
        </mxCell>
        <mxCell id="Dzn5CRCUIPu2wGvUZ2na-193" value="" style="endArrow=none;html=1;rounded=0;fontSize=15;startArrow=none;" parent="1" source="Dzn5CRCUIPu2wGvUZ2na-196" edge="1">
          <mxGeometry width="50" height="50" relative="1" as="geometry">
            <mxPoint x="-127" y="2008" as="sourcePoint" />
            <mxPoint x="-128.44" y="1535.75" as="targetPoint" />
          </mxGeometry>
        </mxCell>
        <mxCell id="Dzn5CRCUIPu2wGvUZ2na-194" value="" style="endArrow=none;html=1;rounded=0;fontSize=15;startArrow=none;" parent="1" source="Dzn5CRCUIPu2wGvUZ2na-200" edge="1">
          <mxGeometry width="50" height="50" relative="1" as="geometry">
            <mxPoint x="147" y="1576" as="sourcePoint" />
            <mxPoint x="146" y="1477" as="targetPoint" />
          </mxGeometry>
        </mxCell>
        <mxCell id="Dzn5CRCUIPu2wGvUZ2na-196" value="" style="ellipse;whiteSpace=wrap;html=1;aspect=fixed;fontSize=15;fillColor=#000000;" parent="1" vertex="1">
          <mxGeometry x="-133.25" y="1631.75" width="9.25" height="9.25" as="geometry" />
        </mxCell>
        <mxCell id="Dzn5CRCUIPu2wGvUZ2na-197" value="" style="endArrow=none;html=1;rounded=0;fontSize=15;startArrow=none;" parent="1" source="Dzn5CRCUIPu2wGvUZ2na-228" target="Dzn5CRCUIPu2wGvUZ2na-196" edge="1">
          <mxGeometry width="50" height="50" relative="1" as="geometry">
            <mxPoint x="-130" y="1839" as="sourcePoint" />
            <mxPoint x="-128.43999999999983" y="1535.75" as="targetPoint" />
          </mxGeometry>
        </mxCell>
        <mxCell id="Dzn5CRCUIPu2wGvUZ2na-200" value="" style="ellipse;whiteSpace=wrap;html=1;aspect=fixed;fontSize=15;fillColor=#000000;" parent="1" vertex="1">
          <mxGeometry x="142" y="1471.75" width="9.25" height="9.25" as="geometry" />
        </mxCell>
        <mxCell id="Dzn5CRCUIPu2wGvUZ2na-201" value="" style="endArrow=none;html=1;rounded=0;fontSize=15;" parent="1" target="Dzn5CRCUIPu2wGvUZ2na-200" edge="1">
          <mxGeometry width="50" height="50" relative="1" as="geometry">
            <mxPoint x="147" y="1576" as="sourcePoint" />
            <mxPoint x="146" y="1476.9999999999998" as="targetPoint" />
          </mxGeometry>
        </mxCell>
        <mxCell id="Dzn5CRCUIPu2wGvUZ2na-203" value="&lt;p style=&quot;font-size: 26px;&quot;&gt;&lt;font style=&quot;font-size: 26px;&quot; face=&quot;Courier New&quot;&gt;iCLK&lt;/font&gt;&lt;/p&gt;" style="text;html=1;strokeColor=none;fillColor=none;align=right;verticalAlign=middle;whiteSpace=wrap;rounded=0;fontFamily=Helvetica;fontSize=26;fontColor=default;shadow=0;" parent="1" vertex="1">
          <mxGeometry x="-1362" y="2094" width="47" height="20" as="geometry" />
        </mxCell>
        <mxCell id="Dzn5CRCUIPu2wGvUZ2na-204" value="" style="endArrow=classic;html=1;rounded=0;strokeColor=#000000;fontSize=6;" parent="1" edge="1">
          <mxGeometry width="50" height="50" relative="1" as="geometry">
            <mxPoint x="-918" y="1655" as="sourcePoint" />
            <mxPoint x="-918" y="1567.38" as="targetPoint" />
          </mxGeometry>
        </mxCell>
        <mxCell id="Dzn5CRCUIPu2wGvUZ2na-205" value="&lt;p style=&quot;font-size: 26px;&quot;&gt;&lt;font style=&quot;font-size: 26px;&quot; face=&quot;Courier New&quot;&gt;iRST&lt;/font&gt;&lt;/p&gt;" style="text;html=1;strokeColor=none;fillColor=none;align=right;verticalAlign=middle;whiteSpace=wrap;rounded=0;fontFamily=Helvetica;fontSize=26;fontColor=default;shadow=0;" parent="1" vertex="1">
          <mxGeometry x="-1359" y="1741" width="46" height="30" as="geometry" />
        </mxCell>
        <mxCell id="Dzn5CRCUIPu2wGvUZ2na-208" value="" style="endArrow=none;html=1;rounded=0;fontSize=15;exitX=1;exitY=0.5;exitDx=0;exitDy=0;startArrow=none;" parent="1" source="Dzn5CRCUIPu2wGvUZ2na-218" edge="1">
          <mxGeometry width="50" height="50" relative="1" as="geometry">
            <mxPoint x="-1175" y="2104" as="sourcePoint" />
            <mxPoint x="1831" y="2109" as="targetPoint" />
          </mxGeometry>
        </mxCell>
        <mxCell id="Dzn5CRCUIPu2wGvUZ2na-209" value="" style="endArrow=none;html=1;rounded=0;fontSize=15;" parent="1" edge="1">
          <mxGeometry width="50" height="50" relative="1" as="geometry">
            <mxPoint x="1832" y="2109" as="sourcePoint" />
            <mxPoint x="1833" y="1474" as="targetPoint" />
          </mxGeometry>
        </mxCell>
        <mxCell id="Dzn5CRCUIPu2wGvUZ2na-210" value="" style="endArrow=none;html=1;rounded=0;fontSize=15;" parent="1" edge="1">
          <mxGeometry width="50" height="50" relative="1" as="geometry">
            <mxPoint x="243" y="2107" as="sourcePoint" />
            <mxPoint x="245" y="1678" as="targetPoint" />
          </mxGeometry>
        </mxCell>
        <mxCell id="Dzn5CRCUIPu2wGvUZ2na-211" style="edgeStyle=orthogonalEdgeStyle;rounded=0;orthogonalLoop=1;jettySize=auto;html=1;endArrow=none;endFill=0;startArrow=classic;startFill=1;exitX=0.001;exitY=0.27;exitDx=0;exitDy=0;exitPerimeter=0;shadow=0;" parent="1" edge="1">
          <mxGeometry relative="1" as="geometry">
            <mxPoint x="-696.9970000000003" y="1701.9999999999995" as="sourcePoint" />
            <mxPoint x="-777.9999999999995" y="1702.19" as="targetPoint" />
            <Array as="points">
              <mxPoint x="-731.01" y="1702.19" />
              <mxPoint x="-731.01" y="1702.19" />
            </Array>
          </mxGeometry>
        </mxCell>
        <mxCell id="Dzn5CRCUIPu2wGvUZ2na-212" value="" style="endArrow=none;html=1;rounded=0;fontSize=15;startArrow=none;" parent="1" source="Dzn5CRCUIPu2wGvUZ2na-215" edge="1">
          <mxGeometry width="50" height="50" relative="1" as="geometry">
            <mxPoint x="-780" y="2105" as="sourcePoint" />
            <mxPoint x="-777.9999999999995" y="1702.19" as="targetPoint" />
          </mxGeometry>
        </mxCell>
        <mxCell id="Dzn5CRCUIPu2wGvUZ2na-213" value="" style="endArrow=classic;html=1;rounded=0;fontSize=15;endFill=1;" parent="1" edge="1">
          <mxGeometry width="50" height="50" relative="1" as="geometry">
            <mxPoint x="-1201" y="2104" as="sourcePoint" />
            <mxPoint x="-1199.2099999999996" y="1602.9999999999995" as="targetPoint" />
          </mxGeometry>
        </mxCell>
        <mxCell id="Dzn5CRCUIPu2wGvUZ2na-214" value="" style="ellipse;whiteSpace=wrap;html=1;aspect=fixed;fontSize=15;fillColor=#000000;" parent="1" vertex="1">
          <mxGeometry x="-1205" y="2099.38" width="9.25" height="9.25" as="geometry" />
        </mxCell>
        <mxCell id="Dzn5CRCUIPu2wGvUZ2na-216" value="" style="endArrow=none;html=1;rounded=0;fontSize=15;" parent="1" target="Dzn5CRCUIPu2wGvUZ2na-214" edge="1">
          <mxGeometry width="50" height="50" relative="1" as="geometry">
            <mxPoint x="-1310" y="2104" as="sourcePoint" />
            <mxPoint x="1110" y="2109" as="targetPoint" />
          </mxGeometry>
        </mxCell>
        <mxCell id="Dzn5CRCUIPu2wGvUZ2na-215" value="" style="ellipse;whiteSpace=wrap;html=1;aspect=fixed;fontSize=15;fillColor=#000000;" parent="1" vertex="1">
          <mxGeometry x="-784" y="2099.38" width="9.25" height="9.25" as="geometry" />
        </mxCell>
        <mxCell id="Dzn5CRCUIPu2wGvUZ2na-217" value="" style="endArrow=none;html=1;rounded=0;fontSize=15;" parent="1" target="Dzn5CRCUIPu2wGvUZ2na-215" edge="1">
          <mxGeometry width="50" height="50" relative="1" as="geometry">
            <mxPoint x="-780" y="2105" as="sourcePoint" />
            <mxPoint x="-777.9999999999993" y="1702.19" as="targetPoint" />
          </mxGeometry>
        </mxCell>
        <mxCell id="Dzn5CRCUIPu2wGvUZ2na-218" value="" style="ellipse;whiteSpace=wrap;html=1;aspect=fixed;fontSize=15;fillColor=#000000;" parent="1" vertex="1">
          <mxGeometry x="239" y="2103" width="9.25" height="9.25" as="geometry" />
        </mxCell>
        <mxCell id="Dzn5CRCUIPu2wGvUZ2na-219" value="" style="endArrow=none;html=1;rounded=0;fontSize=15;exitX=1;exitY=0.5;exitDx=0;exitDy=0;startArrow=none;" parent="1" source="Dzn5CRCUIPu2wGvUZ2na-214" target="Dzn5CRCUIPu2wGvUZ2na-218" edge="1">
          <mxGeometry width="50" height="50" relative="1" as="geometry">
            <mxPoint x="-1021.750000000005" y="2104.0049999999997" as="sourcePoint" />
            <mxPoint x="1284.0000000000005" y="2109" as="targetPoint" />
          </mxGeometry>
        </mxCell>
        <mxCell id="Dzn5CRCUIPu2wGvUZ2na-225" style="rounded=0;orthogonalLoop=1;jettySize=auto;html=1;shadow=0;fontFamily=Courier New;fontSize=23;fontColor=default;startArrow=none;startFill=0;endArrow=none;endFill=0;strokeColor=#000000;" parent="1" edge="1">
          <mxGeometry relative="1" as="geometry">
            <mxPoint x="702" y="1771" as="sourcePoint" />
            <mxPoint x="-130" y="1771" as="targetPoint" />
          </mxGeometry>
        </mxCell>
        <mxCell id="Dzn5CRCUIPu2wGvUZ2na-227" value="" style="endArrow=none;html=1;rounded=0;fontSize=15;strokeColor=#000000;" parent="1" edge="1">
          <mxGeometry width="50" height="50" relative="1" as="geometry">
            <mxPoint x="702" y="1771" as="sourcePoint" />
            <mxPoint x="702" y="1672" as="targetPoint" />
          </mxGeometry>
        </mxCell>
        <mxCell id="Dzn5CRCUIPu2wGvUZ2na-228" value="" style="ellipse;whiteSpace=wrap;html=1;aspect=fixed;fontSize=15;fillColor=#000000;" parent="1" vertex="1">
          <mxGeometry x="-134.75" y="1767" width="9.25" height="9.25" as="geometry" />
        </mxCell>
        <mxCell id="Dzn5CRCUIPu2wGvUZ2na-229" value="" style="endArrow=none;html=1;rounded=0;fontSize=15;startArrow=none;" parent="1" source="zkCULACQJ2I8BQ1GwxoB-11" target="Dzn5CRCUIPu2wGvUZ2na-228" edge="1">
          <mxGeometry width="50" height="50" relative="1" as="geometry">
            <mxPoint x="-130" y="1869" as="sourcePoint" />
            <mxPoint x="-128.6542253405587" y="1640.9999101433903" as="targetPoint" />
          </mxGeometry>
        </mxCell>
        <mxCell id="Dzn5CRCUIPu2wGvUZ2na-230" value="" style="ellipse;whiteSpace=wrap;html=1;aspect=fixed;fontSize=15;fillColor=#000000;" parent="1" vertex="1">
          <mxGeometry x="-134.75" y="1191.25" width="9.25" height="9.25" as="geometry" />
        </mxCell>
        <mxCell id="Dzn5CRCUIPu2wGvUZ2na-231" value="" style="endArrow=none;html=1;rounded=0;fontSize=15;startArrow=none;" parent="1" source="Dzn5CRCUIPu2wGvUZ2na-191" target="Dzn5CRCUIPu2wGvUZ2na-230" edge="1">
          <mxGeometry width="50" height="50" relative="1" as="geometry">
            <mxPoint x="-128.64778297154976" y="1256.0000567754971" as="sourcePoint" />
            <mxPoint x="-129" y="1195" as="targetPoint" />
          </mxGeometry>
        </mxCell>
        <mxCell id="Dzn5CRCUIPu2wGvUZ2na-232" value="s_Inst[25-0]" style="text;html=1;strokeColor=none;fillColor=none;align=center;verticalAlign=middle;whiteSpace=wrap;rounded=0;fontSize=15;fontFamily=Courier New;" parent="1" vertex="1">
          <mxGeometry x="-247.88" y="667.5" width="107" height="16.16" as="geometry" />
        </mxCell>
        <mxCell id="Dzn5CRCUIPu2wGvUZ2na-233" value="s_Inst[31-26]" style="text;html=1;strokeColor=none;fillColor=none;align=center;verticalAlign=middle;whiteSpace=wrap;rounded=0;fontSize=15;fontFamily=Courier New;" parent="1" vertex="1">
          <mxGeometry x="-188" y="1174.84" width="95" height="16.16" as="geometry" />
        </mxCell>
        <mxCell id="Dzn5CRCUIPu2wGvUZ2na-235" value="s_Inst[25-21]" style="text;html=1;strokeColor=none;fillColor=none;align=center;verticalAlign=middle;whiteSpace=wrap;rounded=0;fontSize=15;fontFamily=Courier New;" parent="1" vertex="1">
          <mxGeometry x="-114" y="1430" width="95" height="16.16" as="geometry" />
        </mxCell>
        <mxCell id="Dzn5CRCUIPu2wGvUZ2na-236" value="s_Inst[20-16]" style="text;html=1;strokeColor=none;fillColor=none;align=center;verticalAlign=middle;whiteSpace=wrap;rounded=0;fontSize=15;fontFamily=Courier New;" parent="1" vertex="1">
          <mxGeometry x="-114" y="1459" width="95" height="16.16" as="geometry" />
        </mxCell>
        <mxCell id="Dzn5CRCUIPu2wGvUZ2na-237" value="s_Inst[15-11]" style="text;html=1;strokeColor=none;fillColor=none;align=center;verticalAlign=middle;whiteSpace=wrap;rounded=0;fontSize=15;fontFamily=Courier New;" parent="1" vertex="1">
          <mxGeometry x="-114" y="1615.62" width="95" height="16.16" as="geometry" />
        </mxCell>
        <mxCell id="Dzn5CRCUIPu2wGvUZ2na-238" value="s_Inst[10-6]" style="text;html=1;strokeColor=none;fillColor=none;align=center;verticalAlign=middle;whiteSpace=wrap;rounded=0;fontSize=15;fontFamily=Courier New;" parent="1" vertex="1">
          <mxGeometry x="-114" y="1776.25" width="95" height="16.16" as="geometry" />
        </mxCell>
        <mxCell id="Dzn5CRCUIPu2wGvUZ2na-239" value="s_Inst[15-0]" style="text;html=1;strokeColor=none;fillColor=none;align=center;verticalAlign=middle;whiteSpace=wrap;rounded=0;fontSize=15;fontFamily=Courier New;" parent="1" vertex="1">
          <mxGeometry x="-114" y="1869.84" width="95" height="16.16" as="geometry" />
        </mxCell>
        <mxCell id="zkCULACQJ2I8BQ1GwxoB-2" value="00" style="text;html=1;strokeColor=none;fillColor=none;align=center;verticalAlign=middle;whiteSpace=wrap;rounded=0;" parent="1" vertex="1">
          <mxGeometry x="174" y="1570" width="20" height="10" as="geometry" />
        </mxCell>
        <mxCell id="zkCULACQJ2I8BQ1GwxoB-3" value="10" style="text;html=1;strokeColor=none;fillColor=none;align=center;verticalAlign=middle;whiteSpace=wrap;rounded=0;" parent="1" vertex="1">
          <mxGeometry x="174" y="1631" width="20" height="10" as="geometry" />
        </mxCell>
        <mxCell id="zkCULACQJ2I8BQ1GwxoB-4" value="01" style="text;html=1;strokeColor=none;fillColor=none;align=center;verticalAlign=middle;whiteSpace=wrap;rounded=0;" parent="1" vertex="1">
          <mxGeometry x="174" y="1600.75" width="20" height="10" as="geometry" />
        </mxCell>
        <mxCell id="zkCULACQJ2I8BQ1GwxoB-5" style="rounded=0;orthogonalLoop=1;jettySize=auto;html=1;shadow=0;fontFamily=Courier New;fontSize=23;fontColor=default;startArrow=none;startFill=0;endArrow=none;endFill=0;strokeColor=#000000;" parent="1" edge="1">
          <mxGeometry relative="1" as="geometry">
            <mxPoint x="716" y="1828" as="sourcePoint" />
            <mxPoint x="-130" y="1828" as="targetPoint" />
          </mxGeometry>
        </mxCell>
        <mxCell id="zkCULACQJ2I8BQ1GwxoB-6" value="" style="endArrow=none;html=1;rounded=0;fontSize=15;strokeColor=#000000;" parent="1" edge="1">
          <mxGeometry width="50" height="50" relative="1" as="geometry">
            <mxPoint x="716" y="1828" as="sourcePoint" />
            <mxPoint x="716" y="1651" as="targetPoint" />
          </mxGeometry>
        </mxCell>
        <mxCell id="zkCULACQJ2I8BQ1GwxoB-7" value="8" style="text;html=1;strokeColor=none;fillColor=none;align=center;verticalAlign=middle;whiteSpace=wrap;rounded=0;" parent="1" vertex="1">
          <mxGeometry x="1277" y="1652.25" width="14" height="13.75" as="geometry" />
        </mxCell>
        <mxCell id="zkCULACQJ2I8BQ1GwxoB-8" value="" style="endArrow=classic;html=1;rounded=0;" parent="1" edge="1">
          <mxGeometry width="50" height="50" relative="1" as="geometry">
            <mxPoint x="716" y="1651" as="sourcePoint" />
            <mxPoint x="1307" y="1651" as="targetPoint" />
          </mxGeometry>
        </mxCell>
        <mxCell id="zkCULACQJ2I8BQ1GwxoB-9" value="" style="endArrow=none;html=1;rounded=0;shadow=0;fontFamily=Courier New;fontSize=23;fontColor=default;" parent="1" edge="1">
          <mxGeometry width="50" height="50" relative="1" as="geometry">
            <mxPoint x="1286" y="1648" as="sourcePoint" />
            <mxPoint x="1290" y="1653.9999999999995" as="targetPoint" />
          </mxGeometry>
        </mxCell>
        <mxCell id="zkCULACQJ2I8BQ1GwxoB-10" value="RQBimm" style="text;html=1;strokeColor=none;fillColor=none;align=center;verticalAlign=middle;whiteSpace=wrap;rounded=0;fontFamily=Courier New;" parent="1" vertex="1">
          <mxGeometry x="1312" y="1646" width="44" height="11" as="geometry" />
        </mxCell>
        <mxCell id="zkCULACQJ2I8BQ1GwxoB-11" value="" style="ellipse;whiteSpace=wrap;html=1;aspect=fixed;fontSize=15;fillColor=#000000;" parent="1" vertex="1">
          <mxGeometry x="-134.75" y="1823" width="9.25" height="9.25" as="geometry" />
        </mxCell>
        <mxCell id="zkCULACQJ2I8BQ1GwxoB-12" value="" style="endArrow=none;html=1;rounded=0;fontSize=15;" parent="1" target="zkCULACQJ2I8BQ1GwxoB-11" edge="1">
          <mxGeometry width="50" height="50" relative="1" as="geometry">
            <mxPoint x="-130" y="1869" as="sourcePoint" />
            <mxPoint x="-130.125" y="1776.25" as="targetPoint" />
          </mxGeometry>
        </mxCell>
        <mxCell id="zkCULACQJ2I8BQ1GwxoB-13" value="s_Inst[23-16]" style="text;html=1;strokeColor=none;fillColor=none;align=center;verticalAlign=middle;whiteSpace=wrap;rounded=0;fontSize=15;fontFamily=Courier New;" parent="1" vertex="1">
          <mxGeometry x="-114" y="1827.84" width="95" height="16.16" as="geometry" />
        </mxCell>
        <mxCell id="sV96iNQU_tMuHQLDyWRK-1" value="" style="endArrow=none;html=1;rounded=0;" edge="1" parent="1">
          <mxGeometry width="50" height="50" relative="1" as="geometry">
            <mxPoint x="-1296" y="1753" as="sourcePoint" />
            <mxPoint x="402" y="1753" as="targetPoint" />
          </mxGeometry>
        </mxCell>
        <mxCell id="sV96iNQU_tMuHQLDyWRK-5" value="" style="rounded=0;whiteSpace=wrap;html=1;" vertex="1" parent="1">
          <mxGeometry x="-328" y="759" width="67" height="1422" as="geometry" />
        </mxCell>
        <mxCell id="sV96iNQU_tMuHQLDyWRK-6" value="" style="rounded=0;whiteSpace=wrap;html=1;" vertex="1" parent="1">
          <mxGeometry x="968" y="665" width="67" height="1422" as="geometry" />
        </mxCell>
        <mxCell id="sV96iNQU_tMuHQLDyWRK-10" value="" style="rounded=0;whiteSpace=wrap;html=1;" vertex="1" parent="1">
          <mxGeometry x="1547" y="657" width="67" height="1422" as="geometry" />
        </mxCell>
        <mxCell id="sV96iNQU_tMuHQLDyWRK-11" value="" style="rounded=0;whiteSpace=wrap;html=1;" vertex="1" parent="1">
          <mxGeometry x="2710" y="1270" width="67" height="728" as="geometry" />
        </mxCell>
        <mxCell id="sV96iNQU_tMuHQLDyWRK-12" value="&lt;b&gt;&lt;font style=&quot;font-size: 23px;&quot;&gt;IMem&lt;/font&gt;&lt;/b&gt;" style="whiteSpace=wrap;html=1;aspect=fixed;rounded=0;fontFamily=Courier New;fontSize=12;fontColor=default;fillColor=none;gradientColor=none;shadow=0;" vertex="1" parent="1">
          <mxGeometry x="-666" y="3146" width="303" height="303" as="geometry" />
        </mxCell>
        <mxCell id="sV96iNQU_tMuHQLDyWRK-13" value="&lt;b&gt;ADD&lt;/b&gt;" style="shape=trapezoid;perimeter=trapezoidPerimeter;whiteSpace=wrap;html=1;fixedSize=1;rounded=0;fontFamily=Courier New;fontSize=23;fontColor=default;fillColor=none;gradientColor=none;rotation=90;size=77.67592592592564;direction=east;horizontal=0;shadow=0;" vertex="1" parent="1">
          <mxGeometry x="-649" y="2712" width="303" height="151.5" as="geometry" />
        </mxCell>
        <mxCell id="sV96iNQU_tMuHQLDyWRK-14" value="&lt;b&gt;MUX&lt;/b&gt;" style="shape=trapezoid;perimeter=trapezoidPerimeter;whiteSpace=wrap;html=1;fixedSize=1;rotation=90;shadow=0;horizontal=0;" vertex="1" parent="1">
          <mxGeometry x="-885.5" y="3192" width="120" height="60" as="geometry" />
        </mxCell>
        <mxCell id="sV96iNQU_tMuHQLDyWRK-15" value="&lt;font style=&quot;font-size: 23px;&quot;&gt;&lt;b&gt;PC&lt;/b&gt;&lt;/font&gt;" style="rounded=0;whiteSpace=wrap;html=1;fontFamily=Courier New;fontSize=12;fontColor=default;fillColor=none;gradientColor=none;" vertex="1" parent="1">
          <mxGeometry x="-1129" y="2879" width="71.59" height="227" as="geometry" />
        </mxCell>
        <mxCell id="sV96iNQU_tMuHQLDyWRK-16" value="" style="rounded=0;whiteSpace=wrap;html=1;" vertex="1" parent="1">
          <mxGeometry x="-217" y="2350" width="67" height="1422" as="geometry" />
        </mxCell>
        <mxCell id="sV96iNQU_tMuHQLDyWRK-19" value="&lt;div&gt;&lt;b&gt;Control&lt;/b&gt;&lt;/div&gt;&lt;div&gt;&lt;b&gt;Unit&lt;br&gt;&lt;/b&gt;&lt;/div&gt;" style="ellipse;whiteSpace=wrap;html=1;rounded=0;fontFamily=Courier New;fontSize=23;fontColor=default;fillColor=none;gradientColor=none;strokeColor=#FF3333;" vertex="1" parent="1">
          <mxGeometry x="113" y="2804" width="185" height="353" as="geometry" />
        </mxCell>
        <mxCell id="sV96iNQU_tMuHQLDyWRK-21" value="&lt;b style=&quot;font-size: 23px;&quot;&gt;RegFile&lt;/b&gt;" style="whiteSpace=wrap;html=1;aspect=fixed;rounded=0;fontFamily=Courier New;fontSize=12;fontColor=default;fillColor=none;gradientColor=none;shadow=0;" vertex="1" parent="1">
          <mxGeometry x="198" y="3474" width="303" height="303" as="geometry" />
        </mxCell>
        <mxCell id="sV96iNQU_tMuHQLDyWRK-23" value="&lt;b&gt;MUX&lt;/b&gt;" style="shape=trapezoid;perimeter=trapezoidPerimeter;whiteSpace=wrap;html=1;fixedSize=1;rotation=90;shadow=0;horizontal=0;" vertex="1" parent="1">
          <mxGeometry x="1126" y="3605" width="120" height="60" as="geometry" />
        </mxCell>
        <mxCell id="sV96iNQU_tMuHQLDyWRK-24" value="&lt;div&gt;&lt;b&gt;ALU&lt;br&gt;&lt;/b&gt;&lt;/div&gt;&lt;div&gt;&lt;b&gt;Control&lt;/b&gt;&lt;/div&gt;&lt;div&gt;&lt;b&gt;Unit&lt;br&gt;&lt;/b&gt;&lt;/div&gt;" style="ellipse;whiteSpace=wrap;html=1;rounded=0;fontFamily=Courier New;fontSize=23;fontColor=default;fillColor=none;gradientColor=none;strokeColor=#FF3333;" vertex="1" parent="1">
          <mxGeometry x="498" y="3101.5" width="185" height="245" as="geometry" />
        </mxCell>
        <mxCell id="sV96iNQU_tMuHQLDyWRK-26" value="" style="rounded=0;whiteSpace=wrap;html=1;" vertex="1" parent="1">
          <mxGeometry x="881" y="2350" width="67" height="1422" as="geometry" />
        </mxCell>
        <mxCell id="sV96iNQU_tMuHQLDyWRK-27" value="&lt;div&gt;&lt;b&gt;Sign&lt;/b&gt;&lt;/div&gt;&lt;div&gt;&lt;b&gt;Ext&lt;br&gt;&lt;/b&gt;&lt;/div&gt;" style="ellipse;whiteSpace=wrap;html=1;rounded=0;fontFamily=Courier New;fontSize=23;fontColor=default;fillColor=none;gradientColor=none;" vertex="1" parent="1">
          <mxGeometry x="147" y="2614" width="102" height="135.08" as="geometry" />
        </mxCell>
        <mxCell id="sV96iNQU_tMuHQLDyWRK-30" value="&lt;b&gt;ALU&lt;/b&gt;" style="shape=trapezoid;perimeter=trapezoidPerimeter;whiteSpace=wrap;html=1;fixedSize=1;rounded=0;fontFamily=Courier New;fontSize=23;fontColor=default;fillColor=none;gradientColor=none;rotation=90;size=77.67592592592564;direction=east;horizontal=0;shadow=0;" vertex="1" parent="1">
          <mxGeometry x="1071.75" y="2850" width="303" height="151.5" as="geometry" />
        </mxCell>
        <mxCell id="sV96iNQU_tMuHQLDyWRK-31" value="" style="rounded=0;whiteSpace=wrap;html=1;" vertex="1" parent="1">
          <mxGeometry x="2048" y="2350" width="67" height="1422" as="geometry" />
        </mxCell>
        <mxCell id="sV96iNQU_tMuHQLDyWRK-33" value="&lt;div&gt;&lt;b&gt;Shift&lt;/b&gt;&lt;/div&gt;&lt;div&gt;&lt;b&gt;Left 2&lt;br&gt;&lt;/b&gt;&lt;/div&gt;" style="ellipse;whiteSpace=wrap;html=1;rounded=0;fontFamily=Courier New;fontSize=23;fontColor=default;fillColor=none;gradientColor=none;" vertex="1" parent="1">
          <mxGeometry x="1242" y="2526" width="121.5" height="160.91" as="geometry" />
        </mxCell>
        <mxCell id="sV96iNQU_tMuHQLDyWRK-34" value="&lt;b&gt;ADD&lt;/b&gt;" style="shape=trapezoid;perimeter=trapezoidPerimeter;whiteSpace=wrap;html=1;fixedSize=1;rounded=0;fontFamily=Courier New;fontSize=23;fontColor=default;fillColor=none;gradientColor=none;rotation=90;size=77.67592592592564;direction=east;horizontal=0;shadow=0;" vertex="1" parent="1">
          <mxGeometry x="1476" y="2496" width="303" height="151.5" as="geometry" />
        </mxCell>
        <mxCell id="sV96iNQU_tMuHQLDyWRK-35" value="" style="rounded=0;whiteSpace=wrap;html=1;" vertex="1" parent="1">
          <mxGeometry x="2852" y="2382" width="67" height="1422" as="geometry" />
        </mxCell>
        <mxCell id="sV96iNQU_tMuHQLDyWRK-36" value="" style="verticalLabelPosition=bottom;shadow=0;dashed=0;align=center;html=1;verticalAlign=top;shape=mxgraph.electrical.logic_gates.logic_gate;operation=xor;fillColor=#FFFFFF;" vertex="1" parent="1">
          <mxGeometry x="2226" y="2545.08" width="100" height="60" as="geometry" />
        </mxCell>
        <mxCell id="sV96iNQU_tMuHQLDyWRK-37" value="" style="shape=or;whiteSpace=wrap;html=1;fillColor=#FFFFFF;" vertex="1" parent="1">
          <mxGeometry x="2402" y="2588" width="60" height="80" as="geometry" />
        </mxCell>
        <mxCell id="sV96iNQU_tMuHQLDyWRK-38" value="&lt;b&gt;&lt;font style=&quot;font-size: 23px;&quot;&gt;DMem&lt;/font&gt;&lt;/b&gt;" style="whiteSpace=wrap;html=1;aspect=fixed;rounded=0;fontFamily=Courier New;fontSize=12;fontColor=default;fillColor=none;gradientColor=none;shadow=0;" vertex="1" parent="1">
          <mxGeometry x="2326" y="2936" width="303" height="303" as="geometry" />
        </mxCell>
        <mxCell id="sV96iNQU_tMuHQLDyWRK-39" value="&lt;b&gt;MUX&lt;/b&gt;" style="shape=trapezoid;perimeter=trapezoidPerimeter;whiteSpace=wrap;html=1;fixedSize=1;rotation=90;shadow=0;horizontal=0;" vertex="1" parent="1">
          <mxGeometry x="3070" y="3042" width="120" height="60" as="geometry" />
        </mxCell>
        <mxCell id="sV96iNQU_tMuHQLDyWRK-40" value="&lt;div&gt;&lt;b&gt;Shift&lt;/b&gt;&lt;/div&gt;&lt;div&gt;&lt;b&gt;Left 2&lt;br&gt;&lt;/b&gt;&lt;/div&gt;" style="ellipse;whiteSpace=wrap;html=1;rounded=0;fontFamily=Courier New;fontSize=23;fontColor=default;fillColor=none;gradientColor=none;" vertex="1" parent="1">
          <mxGeometry x="134" y="2414" width="121.5" height="160.91" as="geometry" />
        </mxCell>
      </root>
    </mxGraphModel>
  </diagram>
</mxfile>
